G04*
G04 #@! TF.GenerationSoftware,Altium Limited,Altium Designer,24.1.0 (36)*
G04*
G04 Layer_Color=32896*
%FSLAX44Y44*%
%MOMM*%
G71*
G04*
G04 #@! TF.SameCoordinates,419B32F7-A19B-4B02-8D27-CA0E7DC0472F*
G04*
G04*
G04 #@! TF.FilePolarity,Positive*
G04*
G01*
G75*
%ADD77C,0.2032*%
D77*
X269947Y183561D02*
X271640Y185254D01*
X275025D01*
X276718Y183561D01*
Y181868D01*
X275025Y180175D01*
X271640D01*
X269947Y178482D01*
Y176790D01*
X271640Y175097D01*
X275025D01*
X276718Y176790D01*
X266561Y185254D02*
X263176D01*
X264869D01*
Y175097D01*
X266561D01*
X263176D01*
X251326Y183561D02*
X253019Y185254D01*
X256405D01*
X258097Y183561D01*
Y176790D01*
X256405Y175097D01*
X253019D01*
X251326Y176790D01*
Y180175D01*
X254712D01*
X247941Y175097D02*
Y185254D01*
X241169Y175097D01*
Y185254D01*
X237784Y175097D02*
Y181868D01*
X234398Y185254D01*
X231013Y181868D01*
Y175097D01*
Y180175D01*
X237784D01*
X227627Y185254D02*
Y175097D01*
X220856D01*
X207314Y185254D02*
X203928D01*
X205621D01*
Y175097D01*
X207314D01*
X203928D01*
X198850D02*
Y185254D01*
X192079Y175097D01*
Y185254D01*
X188693Y175097D02*
Y185254D01*
X183615D01*
X181922Y183561D01*
Y180175D01*
X183615Y178482D01*
X188693D01*
X178536Y185254D02*
Y176790D01*
X176844Y175097D01*
X173458D01*
X171765Y176790D01*
Y185254D01*
X168380D02*
X161609D01*
X164994D01*
Y175097D01*
X276718Y158032D02*
Y168189D01*
X273332Y164803D01*
X269947Y168189D01*
Y158032D01*
X266561D02*
Y164803D01*
X263176Y168189D01*
X259790Y164803D01*
Y158032D01*
Y163110D01*
X266561D01*
X256405Y168189D02*
X249633Y158032D01*
Y168189D02*
X256405Y158032D01*
X246248Y168189D02*
X242862D01*
X244555D01*
Y158032D01*
X246248D01*
X242862D01*
X237784D02*
Y168189D01*
X234398Y164803D01*
X231013Y168189D01*
Y158032D01*
X227627Y168189D02*
Y159725D01*
X225934Y158032D01*
X222549D01*
X220856Y159725D01*
Y168189D01*
X217470Y158032D02*
Y168189D01*
X214085Y164803D01*
X210699Y168189D01*
Y158032D01*
X197157Y163110D02*
X190386D01*
X193771Y166496D02*
Y159725D01*
X187000Y158032D02*
X180229Y164803D01*
X176844Y163110D02*
X170072D01*
X156530Y158032D02*
X153145D01*
X154837D01*
Y168189D01*
X156530Y166496D01*
X148066D02*
X146373Y168189D01*
X142988D01*
X141295Y166496D01*
Y159725D01*
X142988Y158032D01*
X146373D01*
X148066Y159725D01*
Y166496D01*
X127753Y168189D02*
Y161418D01*
X124367Y158032D01*
X120982Y161418D01*
Y168189D01*
X634968Y186818D02*
Y176662D01*
X629890D01*
X628197Y178354D01*
Y180047D01*
X629890Y181740D01*
X634968D01*
X629890D01*
X628197Y183433D01*
Y185126D01*
X629890Y186818D01*
X634968D01*
X624811D02*
Y178354D01*
X623119Y176662D01*
X619733D01*
X618040Y178354D01*
Y186818D01*
X607883D02*
X614655D01*
Y181740D01*
X611269D01*
X614655D01*
Y176662D01*
X604498Y185126D02*
X602805Y186818D01*
X599420D01*
X597727Y185126D01*
Y183433D01*
X599420Y181740D01*
X597727Y180047D01*
Y178354D01*
X599420Y176662D01*
X602805D01*
X604498Y178354D01*
Y180047D01*
X602805Y181740D01*
X604498Y183433D01*
Y185126D01*
X602805Y181740D02*
X599420D01*
X594341Y185126D02*
X592648Y186818D01*
X589263D01*
X587570Y185126D01*
Y178354D01*
X589263Y176662D01*
X592648D01*
X594341Y178354D01*
Y185126D01*
X577413Y176662D02*
X584184D01*
X577413Y183433D01*
Y185126D01*
X579106Y186818D01*
X582492D01*
X584184Y185126D01*
X563871Y176662D02*
Y183433D01*
X560485Y186818D01*
X557100Y183433D01*
Y176662D01*
Y181740D01*
X563871D01*
X546943Y185126D02*
X548636Y186818D01*
X552021D01*
X553714Y185126D01*
Y178354D01*
X552021Y176662D01*
X548636D01*
X546943Y178354D01*
X543558Y186818D02*
X536786D01*
X540172D01*
Y176662D01*
X533401Y186818D02*
X530015D01*
X531708D01*
Y176662D01*
X533401D01*
X530015D01*
X524937Y186818D02*
Y180047D01*
X521551Y176662D01*
X518166Y180047D01*
Y186818D01*
X508009D02*
X514780D01*
Y176662D01*
X508009D01*
X514780Y181740D02*
X511395D01*
X494467Y176662D02*
Y186818D01*
X489388D01*
X487696Y185126D01*
Y181740D01*
X489388Y180047D01*
X494467D01*
X484310Y176662D02*
Y186818D01*
X479232D01*
X477539Y185126D01*
Y181740D01*
X479232Y180047D01*
X484310D01*
X480924D02*
X477539Y176662D01*
X469075Y186818D02*
X472461D01*
X474153Y185126D01*
Y178354D01*
X472461Y176662D01*
X469075D01*
X467382Y178354D01*
Y185126D01*
X469075Y186818D01*
X463997D02*
Y176662D01*
X458918D01*
X457225Y178354D01*
Y180047D01*
X458918Y181740D01*
X463997D01*
X458918D01*
X457225Y183433D01*
Y185126D01*
X458918Y186818D01*
X463997D01*
X447069D02*
X453840D01*
Y176662D01*
X447069D01*
X453840Y181740D02*
X450454D01*
X628197Y169754D02*
X631582D01*
X629890D01*
Y161290D01*
X631582Y159597D01*
X633275D01*
X634968Y161290D01*
X624811Y159597D02*
Y166368D01*
X621426Y169754D01*
X618040Y166368D01*
Y159597D01*
Y164675D01*
X624811D01*
X614655Y159597D02*
Y169754D01*
X611269Y166368D01*
X607883Y169754D01*
Y159597D01*
X597727Y169754D02*
X604498D01*
Y159597D01*
X597727D01*
X604498Y164675D02*
X601112D01*
X587570Y168061D02*
X589263Y169754D01*
X592648D01*
X594341Y168061D01*
Y166368D01*
X592648Y164675D01*
X589263D01*
X587570Y162982D01*
Y161290D01*
X589263Y159597D01*
X592648D01*
X594341Y161290D01*
X574028Y169754D02*
Y159597D01*
X570642Y162982D01*
X567257Y159597D01*
Y169754D01*
X563871D02*
X560485D01*
X562178D01*
Y159597D01*
X563871D01*
X560485D01*
X555407Y169754D02*
Y159597D01*
X548636D01*
X538479Y168061D02*
X540172Y169754D01*
X543558D01*
X545250Y168061D01*
Y166368D01*
X543558Y164675D01*
X540172D01*
X538479Y162982D01*
Y161290D01*
X540172Y159597D01*
X543558D01*
X545250Y161290D01*
X530015Y169754D02*
X533401D01*
X535094Y168061D01*
Y161290D01*
X533401Y159597D01*
X530015D01*
X528322Y161290D01*
Y168061D01*
X530015Y169754D01*
X524937Y159597D02*
Y169754D01*
X518166Y159597D01*
Y169754D01*
X497852Y159597D02*
X504623D01*
X497852Y166368D01*
Y168061D01*
X499545Y169754D01*
X502931D01*
X504623Y168061D01*
X494467D02*
X492774Y169754D01*
X489388D01*
X487696Y168061D01*
Y161290D01*
X489388Y159597D01*
X492774D01*
X494467Y161290D01*
Y168061D01*
X477539Y159597D02*
X484310D01*
X477539Y166368D01*
Y168061D01*
X479232Y169754D01*
X482617D01*
X484310Y168061D01*
X469075Y159597D02*
Y169754D01*
X474153Y164675D01*
X467382D01*
X634968Y152689D02*
Y142532D01*
Y147610D01*
X628197D01*
Y152689D01*
Y142532D01*
X624811Y152689D02*
X621426D01*
X623119D01*
Y142532D01*
X624811D01*
X621426D01*
X609576Y152689D02*
X616347D01*
Y147610D01*
X612962D01*
X616347D01*
Y142532D01*
X606191Y152689D02*
X602805D01*
X604498D01*
Y142532D01*
X606191D01*
X602805D01*
X597727D02*
Y152689D01*
X592648D01*
X590956Y150996D01*
Y147610D01*
X592648Y145918D01*
X597727D01*
X587570Y152689D02*
Y142532D01*
Y147610D01*
X580799D01*
Y152689D01*
Y142532D01*
X577413Y152689D02*
X574028D01*
X575720D01*
Y142532D01*
X577413D01*
X574028D01*
X568949Y152689D02*
Y142532D01*
X562178D01*
X552021Y152689D02*
X558793D01*
Y142532D01*
X552021D01*
X558793Y147610D02*
X555407D01*
X531708Y142532D02*
X538479D01*
X531708Y149303D01*
Y150996D01*
X533401Y152689D01*
X536786D01*
X538479Y150996D01*
X528322D02*
X526630Y152689D01*
X523244D01*
X521551Y150996D01*
Y144225D01*
X523244Y142532D01*
X526630D01*
X528322Y144225D01*
Y150996D01*
X511395Y142532D02*
X518166D01*
X511395Y149303D01*
Y150996D01*
X513087Y152689D01*
X516473D01*
X518166Y150996D01*
X502931Y142532D02*
Y152689D01*
X508009Y147610D01*
X501238D01*
M02*
