G04*
G04 #@! TF.GenerationSoftware,Altium Limited,Altium Designer,24.1.0 (36)*
G04*
G04 Layer_Physical_Order=4*
G04 Layer_Color=16711680*
%FSLAX44Y44*%
%MOMM*%
G71*
G04*
G04 #@! TF.SameCoordinates,419B32F7-A19B-4B02-8D27-CA0E7DC0472F*
G04*
G04*
G04 #@! TF.FilePolarity,Positive*
G04*
G01*
G75*
%ADD17R,5.0000X1.4000*%
%ADD78O,1.6000X0.9000*%
%ADD79C,0.4500*%
%ADD80C,0.6000*%
G36*
X698918Y1082D02*
X136832D01*
Y27000D01*
X136515Y27765D01*
X73500Y90780D01*
X73500Y117000D01*
X131905Y117000D01*
X131943Y116943D01*
X133346Y116006D01*
X135000Y115677D01*
X136654Y116006D01*
X138057Y116943D01*
X138095Y117000D01*
X141620D01*
X141620Y146250D01*
X130500Y146250D01*
Y155007D01*
X111500D01*
X111500Y173500D01*
X61582D01*
Y198918D01*
X698918Y198918D01*
Y1082D01*
D02*
G37*
%LPC*%
G36*
X165000Y194323D02*
X163346Y193994D01*
X161500Y193238D01*
X159654Y193994D01*
X158000Y194323D01*
X156346Y193994D01*
X154943Y193057D01*
X153057Y193057D01*
X152410Y193489D01*
X151654Y193994D01*
X150000Y194323D01*
X148346Y193994D01*
X146500Y193238D01*
X144654Y193994D01*
X143000Y194323D01*
X141346Y193994D01*
X139943Y193057D01*
X138057Y193057D01*
X137410Y193489D01*
X136654Y193994D01*
X135000Y194323D01*
X133346Y193994D01*
X131943Y193057D01*
X131006Y191654D01*
X130677Y190000D01*
X131006Y188346D01*
X131943Y186943D01*
X133346Y186006D01*
X135000Y185677D01*
X136654Y186006D01*
X138057Y186943D01*
X139943Y186943D01*
X140590Y186511D01*
X141346Y186006D01*
X143000Y185677D01*
X144654Y186006D01*
X146500Y186762D01*
X148346Y186006D01*
X150000Y185677D01*
X151654Y186006D01*
X153057Y186943D01*
X154943Y186943D01*
X155590Y186511D01*
X156346Y186006D01*
X158000Y185677D01*
X159654Y186006D01*
X161500Y186762D01*
X163346Y186006D01*
X165000Y185677D01*
X166654Y186006D01*
X168057Y186943D01*
X168994Y188346D01*
X169323Y190000D01*
X168994Y191654D01*
X168057Y193057D01*
X166654Y193994D01*
X165000Y194323D01*
D02*
G37*
G36*
X272000Y181323D02*
X270346Y180994D01*
X268943Y180057D01*
X268006Y178654D01*
X267677Y177000D01*
X268006Y175346D01*
X268943Y173943D01*
X270346Y173006D01*
X272000Y172677D01*
X273654Y173006D01*
X275057Y173943D01*
X275994Y175346D01*
X276323Y177000D01*
X275994Y178654D01*
X275057Y180057D01*
X273654Y180994D01*
X272000Y181323D01*
D02*
G37*
G36*
X151000Y176323D02*
X149346Y175994D01*
X147943Y175057D01*
X147006Y173654D01*
X146677Y172000D01*
X147006Y170346D01*
X147943Y168943D01*
X149346Y168006D01*
X151000Y167677D01*
X152654Y168006D01*
X154057Y168943D01*
X154994Y170346D01*
X155323Y172000D01*
X154994Y173654D01*
X154057Y175057D01*
X152654Y175994D01*
X151000Y176323D01*
D02*
G37*
G36*
X357000Y127323D02*
X355346Y126994D01*
X353500Y126238D01*
X351654Y126994D01*
X350000Y127323D01*
X348346Y126994D01*
X346943Y126057D01*
X346006Y124654D01*
X345677Y123000D01*
X346006Y121346D01*
X346762Y119500D01*
X346006Y117654D01*
X345677Y116000D01*
X346006Y114346D01*
X346943Y112943D01*
X348346Y112006D01*
X350000Y111677D01*
X351654Y112006D01*
X353500Y112762D01*
X355346Y112006D01*
X357000Y111677D01*
X358654Y112006D01*
X360057Y112943D01*
X360994Y114346D01*
X361323Y116000D01*
X360994Y117654D01*
X360238Y119500D01*
X360994Y121346D01*
X361323Y123000D01*
X360994Y124654D01*
X360057Y126057D01*
X358654Y126994D01*
X357000Y127323D01*
D02*
G37*
G36*
X423000Y105323D02*
X421346Y104994D01*
X419943Y104057D01*
X418057Y104057D01*
X417410Y104489D01*
X416654Y104994D01*
X415000Y105323D01*
X413346Y104994D01*
X411943Y104057D01*
X410057Y104057D01*
X409410Y104489D01*
X408654Y104994D01*
X407000Y105323D01*
X405346Y104994D01*
X403500Y104238D01*
X401654Y104994D01*
X400000Y105323D01*
X398346Y104994D01*
X396943Y104057D01*
X396006Y102654D01*
X395677Y101000D01*
X396006Y99346D01*
X396943Y97943D01*
X398346Y97006D01*
X400000Y96677D01*
X401654Y97006D01*
X403500Y97762D01*
X405346Y97006D01*
X407000Y96677D01*
X408654Y97006D01*
X410057Y97943D01*
X411943Y97943D01*
X412590Y97511D01*
X413346Y97006D01*
X415000Y96677D01*
X416654Y97006D01*
X418057Y97943D01*
X419943Y97943D01*
X420590Y97511D01*
X421346Y97006D01*
X423000Y96677D01*
X424654Y97006D01*
X426057Y97943D01*
X426994Y99346D01*
X427323Y101000D01*
X426994Y102654D01*
X426057Y104057D01*
X424654Y104994D01*
X423000Y105323D01*
D02*
G37*
G36*
X540000Y111323D02*
X538346Y110994D01*
X536943Y110057D01*
X536006Y108654D01*
X535677Y107000D01*
X536006Y105346D01*
X536943Y103943D01*
X538346Y103006D01*
X540000Y102677D01*
X541654Y103006D01*
X543057Y103943D01*
X543994Y105346D01*
X544323Y107000D01*
X543994Y108654D01*
X543057Y110057D01*
X541654Y110994D01*
X540000Y111323D01*
D02*
G37*
G36*
X506000Y101323D02*
X504346Y100994D01*
X502500Y100238D01*
X500654Y100994D01*
X499000Y101323D01*
X497346Y100994D01*
X495943Y100057D01*
X495006Y98654D01*
X494677Y97000D01*
X495006Y95346D01*
X495762Y93500D01*
X495006Y91654D01*
X494677Y90000D01*
X495006Y88346D01*
X495943Y86943D01*
X497346Y86006D01*
X499000Y85677D01*
X500654Y86006D01*
X502500Y86762D01*
X504346Y86006D01*
X506000Y85677D01*
X507654Y86006D01*
X509057Y86943D01*
X509994Y88346D01*
X510323Y90000D01*
X509994Y91654D01*
X509238Y93500D01*
X509994Y95346D01*
X510323Y97000D01*
X509994Y98654D01*
X509057Y100057D01*
X507654Y100994D01*
X506000Y101323D01*
D02*
G37*
G36*
X222000Y108323D02*
X220346Y107994D01*
X218943Y107057D01*
X218006Y105654D01*
X217677Y104000D01*
X218006Y102346D01*
X218943Y100943D01*
X220346Y100006D01*
X222000Y99677D01*
X223654Y100006D01*
X225057Y100943D01*
X225994Y102346D01*
X226323Y104000D01*
X225994Y105654D01*
X225057Y107057D01*
X223654Y107994D01*
X222000Y108323D01*
D02*
G37*
G36*
X599000Y96323D02*
X597346Y95994D01*
X595500Y95238D01*
X593654Y95994D01*
X592000Y96323D01*
X590346Y95994D01*
X588943Y95057D01*
X588006Y93654D01*
X587677Y92000D01*
X588006Y90346D01*
X588762Y88500D01*
X588006Y86654D01*
X587677Y85000D01*
X588006Y83346D01*
X588943Y81943D01*
X590346Y81006D01*
X592000Y80677D01*
X593654Y81006D01*
X595500Y81762D01*
X597346Y81006D01*
X599000Y80677D01*
X600654Y81006D01*
X602057Y81943D01*
X602994Y83346D01*
X603323Y85000D01*
X602994Y86654D01*
X602238Y88500D01*
X602994Y90346D01*
X603323Y92000D01*
X602994Y93654D01*
X602057Y95057D01*
X600654Y95994D01*
X599000Y96323D01*
D02*
G37*
G36*
X277000Y96323D02*
X275346Y95994D01*
X273943Y95057D01*
X273006Y93654D01*
X272677Y92000D01*
X273006Y90346D01*
X273943Y88943D01*
X275346Y88006D01*
X277000Y87677D01*
X278654Y88006D01*
X280057Y88943D01*
X280994Y90346D01*
X281323Y92000D01*
X280994Y93654D01*
X280057Y95057D01*
X278654Y95994D01*
X277000Y96323D01*
D02*
G37*
G36*
X165000Y85323D02*
X163346Y84994D01*
X161500Y84238D01*
X159654Y84994D01*
X158000Y85323D01*
X156346Y84994D01*
X154943Y84057D01*
X153057Y84057D01*
X152410Y84489D01*
X151654Y84994D01*
X150000Y85323D01*
X148346Y84994D01*
X146500Y84238D01*
X144654Y84994D01*
X143000Y85323D01*
X141346Y84994D01*
X139943Y84057D01*
X138057Y84057D01*
X137410Y84489D01*
X136654Y84994D01*
X135000Y85323D01*
X133346Y84994D01*
X131943Y84057D01*
X131006Y82654D01*
X130677Y81000D01*
X131006Y79346D01*
X131943Y77943D01*
X133346Y77006D01*
X135000Y76677D01*
X136654Y77006D01*
X138057Y77943D01*
X139943Y77943D01*
X140590Y77511D01*
X141346Y77006D01*
X143000Y76677D01*
X144654Y77006D01*
X146500Y77762D01*
X148346Y77006D01*
X150000Y76677D01*
X151654Y77006D01*
X153057Y77943D01*
X154943Y77943D01*
X155590Y77511D01*
X156346Y77006D01*
X158000Y76677D01*
X159654Y77006D01*
X161500Y77762D01*
X163346Y77006D01*
X165000Y76677D01*
X166654Y77006D01*
X168057Y77943D01*
X168994Y79346D01*
X169323Y81000D01*
X168994Y82654D01*
X168057Y84057D01*
X166654Y84994D01*
X165000Y85323D01*
D02*
G37*
G36*
X287000Y86323D02*
X285346Y85994D01*
X283943Y85057D01*
X283006Y83654D01*
X282677Y82000D01*
X283006Y80346D01*
X283943Y78943D01*
X285346Y78006D01*
X287000Y77677D01*
X288654Y78006D01*
X290057Y78943D01*
X290994Y80346D01*
X291323Y82000D01*
X290994Y83654D01*
X290057Y85057D01*
X288654Y85994D01*
X287000Y86323D01*
D02*
G37*
G36*
X571000Y81323D02*
X569346Y80994D01*
X567943Y80057D01*
X567006Y78654D01*
X566677Y77000D01*
X567006Y75346D01*
X567943Y73943D01*
X569346Y73006D01*
X571000Y72677D01*
X572654Y73006D01*
X574057Y73943D01*
X574994Y75346D01*
X575323Y77000D01*
X574994Y78654D01*
X574057Y80057D01*
X572654Y80994D01*
X571000Y81323D01*
D02*
G37*
G36*
X423000Y55323D02*
X421346Y54994D01*
X419943Y54057D01*
X418057Y54057D01*
X417410Y54489D01*
X416654Y54994D01*
X415000Y55323D01*
X413346Y54994D01*
X411943Y54057D01*
X410057Y54057D01*
X409410Y54489D01*
X408654Y54994D01*
X407000Y55323D01*
X405346Y54994D01*
X403500Y54238D01*
X401654Y54994D01*
X400000Y55323D01*
X398346Y54994D01*
X396943Y54057D01*
X396006Y52654D01*
X395677Y51000D01*
X396006Y49346D01*
X396943Y47943D01*
X398346Y47006D01*
X400000Y46677D01*
X401654Y47006D01*
X403500Y47762D01*
X405346Y47006D01*
X407000Y46677D01*
X408654Y47006D01*
X410057Y47943D01*
X411943Y47943D01*
X412590Y47511D01*
X413346Y47006D01*
X415000Y46677D01*
X416654Y47006D01*
X418057Y47943D01*
X419943Y47943D01*
X420590Y47511D01*
X421346Y47006D01*
X423000Y46677D01*
X424654Y47006D01*
X426057Y47943D01*
X426994Y49346D01*
X427323Y51000D01*
X426994Y52654D01*
X426057Y54057D01*
X424654Y54994D01*
X423000Y55323D01*
D02*
G37*
G36*
X357000Y42323D02*
X355346Y41994D01*
X353500Y41238D01*
X351654Y41994D01*
X350000Y42323D01*
X348346Y41994D01*
X346943Y41057D01*
X346006Y39654D01*
X345677Y38000D01*
X346006Y36346D01*
X346762Y34500D01*
X346006Y32654D01*
X345677Y31000D01*
X346006Y29346D01*
X346943Y27943D01*
X348346Y27006D01*
X350000Y26677D01*
X351654Y27006D01*
X353057Y27943D01*
X353943D01*
X355346Y27006D01*
X357000Y26677D01*
X358654Y27006D01*
X360057Y27943D01*
X360994Y29346D01*
X361323Y31000D01*
X360994Y32654D01*
X360238Y34500D01*
X360994Y36346D01*
X361323Y38000D01*
X360994Y39654D01*
X360057Y41057D01*
X358654Y41994D01*
X357000Y42323D01*
D02*
G37*
G36*
X195000Y32323D02*
X193346Y31994D01*
X191943Y31057D01*
X191006Y29654D01*
X190677Y28000D01*
X191006Y26346D01*
X191943Y24943D01*
X193346Y24006D01*
X195000Y23677D01*
X196654Y24006D01*
X198057Y24943D01*
X198994Y26346D01*
X199323Y28000D01*
X198994Y29654D01*
X198057Y31057D01*
X196654Y31994D01*
X195000Y32323D01*
D02*
G37*
G36*
X205000Y22323D02*
X203346Y21994D01*
X201943Y21057D01*
X201006Y19654D01*
X200677Y18000D01*
X201006Y16346D01*
X201943Y14943D01*
X203346Y14006D01*
X205000Y13677D01*
X206654Y14006D01*
X208057Y14943D01*
X208994Y16346D01*
X209323Y18000D01*
X208994Y19654D01*
X208057Y21057D01*
X206654Y21994D01*
X205000Y22323D01*
D02*
G37*
%LPD*%
D17*
X674500Y128000D02*
D03*
Y182000D02*
D03*
D78*
X683500Y13000D02*
D03*
Y79000D02*
D03*
D79*
X643000Y7000D02*
D03*
X144000Y15000D02*
D03*
Y8000D02*
D03*
Y22000D02*
D03*
D03*
Y8000D02*
D03*
Y15000D02*
D03*
X152000Y22000D02*
D03*
Y8000D02*
D03*
Y15000D02*
D03*
X160000Y22000D02*
D03*
Y8000D02*
D03*
Y15000D02*
D03*
X65000Y185000D02*
D03*
Y178000D02*
D03*
Y192000D02*
D03*
D03*
Y178000D02*
D03*
Y185000D02*
D03*
X73000Y192000D02*
D03*
Y178000D02*
D03*
Y185000D02*
D03*
X81000Y192000D02*
D03*
Y178000D02*
D03*
Y185000D02*
D03*
X21000Y135000D02*
D03*
Y128000D02*
D03*
Y142000D02*
D03*
X13000Y135000D02*
D03*
Y128000D02*
D03*
Y142000D02*
D03*
X5000Y135000D02*
D03*
Y128000D02*
D03*
Y142000D02*
D03*
D03*
Y128000D02*
D03*
Y135000D02*
D03*
X145022Y130128D02*
D03*
X150000Y135000D02*
D03*
X154953Y130059D02*
D03*
X144981Y140059D02*
D03*
X155000Y140000D02*
D03*
X638385Y163259D02*
D03*
X623885D02*
D03*
X609385D02*
D03*
X594885D02*
D03*
X580385D02*
D03*
X565885D02*
D03*
X551385D02*
D03*
X536885D02*
D03*
X522385D02*
D03*
X507885D02*
D03*
X493385D02*
D03*
X478885D02*
D03*
X464385D02*
D03*
X449885D02*
D03*
X435385D02*
D03*
X420885D02*
D03*
X406385D02*
D03*
X391885D02*
D03*
X377385D02*
D03*
X362885D02*
D03*
X348385D02*
D03*
X333885D02*
D03*
X319385D02*
D03*
X304885D02*
D03*
X290385D02*
D03*
X275885D02*
D03*
X261385D02*
D03*
X246885D02*
D03*
X232385D02*
D03*
X218158Y160458D02*
D03*
X206355Y152035D02*
D03*
X192356Y148259D02*
D03*
X213224Y135924D02*
D03*
X224420Y145138D02*
D03*
X238832Y146741D02*
D03*
X253332D02*
D03*
X267831D02*
D03*
X282332D02*
D03*
X296831D02*
D03*
X311332D02*
D03*
X325831D02*
D03*
X340331D02*
D03*
X354831D02*
D03*
X369331D02*
D03*
X383831D02*
D03*
X398331D02*
D03*
X412831D02*
D03*
X427331D02*
D03*
X441831D02*
D03*
X456331D02*
D03*
X470831D02*
D03*
X485331D02*
D03*
X499831D02*
D03*
X514331D02*
D03*
X528831D02*
D03*
X543331D02*
D03*
X557831D02*
D03*
X572331D02*
D03*
X586831D02*
D03*
X601331D02*
D03*
X615831D02*
D03*
X630331D02*
D03*
X644831D02*
D03*
X623999Y195000D02*
D03*
X633999D02*
D03*
X603999D02*
D03*
X613999D02*
D03*
X693999Y115000D02*
D03*
X683999D02*
D03*
X673999D02*
D03*
X653999D02*
D03*
X663999D02*
D03*
X633999D02*
D03*
X643999D02*
D03*
Y195000D02*
D03*
X663999D02*
D03*
X653999D02*
D03*
X656000Y164000D02*
D03*
X666000D02*
D03*
X677000D02*
D03*
X694000Y171000D02*
D03*
X589999Y193000D02*
D03*
X673999Y195000D02*
D03*
X683999D02*
D03*
X693999D02*
D03*
X151000Y172000D02*
D03*
X549000Y86000D02*
D03*
X544065Y81019D02*
D03*
X554000Y91000D02*
D03*
X554043Y81019D02*
D03*
X544000Y91000D02*
D03*
X587000Y109000D02*
D03*
X578000D02*
D03*
X525000Y75000D02*
D03*
Y82000D02*
D03*
X582000Y53000D02*
D03*
X574000Y59000D02*
D03*
X571000Y77000D02*
D03*
X540000Y107000D02*
D03*
X272000Y177000D02*
D03*
X222000Y104000D02*
D03*
X235000Y116000D02*
D03*
X277000Y92000D02*
D03*
X193000Y7000D02*
D03*
X666000Y146000D02*
D03*
X452000Y57000D02*
D03*
X439000D02*
D03*
X452000Y96000D02*
D03*
X439000D02*
D03*
X357000Y116000D02*
D03*
Y123000D02*
D03*
X350000Y116000D02*
D03*
Y123000D02*
D03*
Y31000D02*
D03*
X357000D02*
D03*
X350000Y38000D02*
D03*
X357000D02*
D03*
X599000Y85000D02*
D03*
X506000Y97000D02*
D03*
X499000D02*
D03*
X506000Y90000D02*
D03*
X499000D02*
D03*
X423000Y51000D02*
D03*
X415000D02*
D03*
X407000D02*
D03*
X400000D02*
D03*
X423000Y101000D02*
D03*
X415000D02*
D03*
X407000D02*
D03*
X400000D02*
D03*
X599000Y92000D02*
D03*
X592000Y85000D02*
D03*
Y92000D02*
D03*
X185000Y170000D02*
D03*
X115000Y80000D02*
D03*
X135000Y190000D02*
D03*
X105000Y90000D02*
D03*
X95000Y100000D02*
D03*
X85000Y110000D02*
D03*
X95000D02*
D03*
X105000D02*
D03*
X80000Y93000D02*
D03*
X105000Y100000D02*
D03*
X115000Y110000D02*
D03*
X694000Y86000D02*
D03*
Y96000D02*
D03*
Y106000D02*
D03*
X203000Y7000D02*
D03*
X213000D02*
D03*
X223000D02*
D03*
X233000D02*
D03*
X243000D02*
D03*
X253000D02*
D03*
X303000D02*
D03*
X293000D02*
D03*
X283000D02*
D03*
X273000D02*
D03*
X263000D02*
D03*
X353000D02*
D03*
X363000D02*
D03*
X343000D02*
D03*
X333000D02*
D03*
X323000D02*
D03*
X313000D02*
D03*
X433000D02*
D03*
X443000D02*
D03*
X453000D02*
D03*
X463000D02*
D03*
X473000D02*
D03*
X423000D02*
D03*
X413000D02*
D03*
X403000D02*
D03*
X393000D02*
D03*
X383000D02*
D03*
X373000D02*
D03*
X543000D02*
D03*
X553000D02*
D03*
X563000D02*
D03*
X573000D02*
D03*
X583000D02*
D03*
X533000D02*
D03*
X523000D02*
D03*
X513000D02*
D03*
X503000D02*
D03*
X493000D02*
D03*
X483000D02*
D03*
X593000D02*
D03*
X603000D02*
D03*
X633000D02*
D03*
X623000D02*
D03*
X613000D02*
D03*
X581000Y193000D02*
D03*
X471000D02*
D03*
X481000D02*
D03*
X491000D02*
D03*
X501000D02*
D03*
X511000D02*
D03*
X521000D02*
D03*
X571000D02*
D03*
X561000D02*
D03*
X551000D02*
D03*
X541000D02*
D03*
X531000D02*
D03*
X361000D02*
D03*
X371000D02*
D03*
X381000D02*
D03*
X391000D02*
D03*
X401000D02*
D03*
X411000D02*
D03*
X461000D02*
D03*
X451000D02*
D03*
X441000D02*
D03*
X431000D02*
D03*
X421000D02*
D03*
X301000D02*
D03*
X311000D02*
D03*
X321000D02*
D03*
X331000D02*
D03*
X341000D02*
D03*
X351000D02*
D03*
X251000D02*
D03*
X261000D02*
D03*
X271000D02*
D03*
X281000D02*
D03*
X291000D02*
D03*
X241000D02*
D03*
X231000D02*
D03*
X221000D02*
D03*
X211000D02*
D03*
X201000D02*
D03*
X115000Y160000D02*
D03*
X184000Y30000D02*
D03*
X165000Y81000D02*
D03*
X135000D02*
D03*
X143000D02*
D03*
X150000D02*
D03*
X158000D02*
D03*
X165000Y190000D02*
D03*
X143000D02*
D03*
X150000D02*
D03*
X158000D02*
D03*
X694000Y139000D02*
D03*
X677000Y146000D02*
D03*
X656000D02*
D03*
X371000Y77000D02*
D03*
X383000D02*
D03*
X184000Y100000D02*
D03*
Y90000D02*
D03*
X290000Y109000D02*
D03*
X181000Y193000D02*
D03*
X191000D02*
D03*
X287000Y82000D02*
D03*
X195000Y28000D02*
D03*
X205000Y18000D02*
D03*
X223000D02*
D03*
X232000Y28000D02*
D03*
X87000Y87000D02*
D03*
X94000Y79000D02*
D03*
X101000Y72000D02*
D03*
X108000Y65000D02*
D03*
X115000Y58000D02*
D03*
X122000Y51000D02*
D03*
X129000Y44000D02*
D03*
X136000Y37000D02*
D03*
X277000Y55000D02*
D03*
X287000Y64000D02*
D03*
X115000Y90000D02*
D03*
X135000Y120000D02*
D03*
X174000Y30000D02*
D03*
X164000D02*
D03*
X154000D02*
D03*
X115000Y100000D02*
D03*
X144000Y30000D02*
D03*
X115000Y170000D02*
D03*
Y190000D02*
D03*
X184000Y110000D02*
D03*
X115000Y180000D02*
D03*
X185000Y160000D02*
D03*
Y180000D02*
D03*
D80*
X382000Y68000D02*
D03*
X372000D02*
D03*
X382000Y86000D02*
D03*
X372000D02*
D03*
X377000Y77000D02*
D03*
M02*
