G04*
G04 #@! TF.GenerationSoftware,Altium Limited,Altium Designer,24.1.0 (36)*
G04*
G04 Layer_Physical_Order=1*
G04 Layer_Color=255*
%FSLAX44Y44*%
%MOMM*%
G71*
G04*
G04 #@! TF.SameCoordinates,419B32F7-A19B-4B02-8D27-CA0E7DC0472F*
G04*
G04*
G04 #@! TF.FilePolarity,Positive*
G04*
G01*
G75*
%ADD13C,0.2000*%
%ADD16R,0.9000X0.6100*%
%ADD17R,5.0000X1.4000*%
G04:AMPARAMS|DCode=19|XSize=0.25mm|YSize=0.7mm|CornerRadius=0.0625mm|HoleSize=0mm|Usage=FLASHONLY|Rotation=0.000|XOffset=0mm|YOffset=0mm|HoleType=Round|Shape=RoundedRectangle|*
%AMROUNDEDRECTD19*
21,1,0.2500,0.5750,0,0,0.0*
21,1,0.1250,0.7000,0,0,0.0*
1,1,0.1250,0.0625,-0.2875*
1,1,0.1250,-0.0625,-0.2875*
1,1,0.1250,-0.0625,0.2875*
1,1,0.1250,0.0625,0.2875*
%
%ADD19ROUNDEDRECTD19*%
G04:AMPARAMS|DCode=20|XSize=0.25mm|YSize=0.7mm|CornerRadius=0.0625mm|HoleSize=0mm|Usage=FLASHONLY|Rotation=90.000|XOffset=0mm|YOffset=0mm|HoleType=Round|Shape=RoundedRectangle|*
%AMROUNDEDRECTD20*
21,1,0.2500,0.5750,0,0,90.0*
21,1,0.1250,0.7000,0,0,90.0*
1,1,0.1250,0.2875,0.0625*
1,1,0.1250,0.2875,-0.0625*
1,1,0.1250,-0.2875,-0.0625*
1,1,0.1250,-0.2875,0.0625*
%
%ADD20ROUNDEDRECTD20*%
%ADD21O,0.8500X0.2500*%
%ADD22O,0.2500X0.8500*%
%ADD23R,0.7000X0.2500*%
%ADD24O,1.4500X0.6000*%
%ADD25R,0.6000X1.0000*%
%ADD26R,0.5000X0.5000*%
%ADD27R,0.5000X0.5000*%
%ADD28R,2.0000X1.6000*%
%ADD29R,1.3000X1.6000*%
%ADD30R,0.6500X1.6000*%
%ADD31O,1.3500X0.4000*%
%ADD32R,1.8000X1.9000*%
G04:AMPARAMS|DCode=33|XSize=1.6mm|YSize=1.4mm|CornerRadius=0.35mm|HoleSize=0mm|Usage=FLASHONLY|Rotation=270.000|XOffset=0mm|YOffset=0mm|HoleType=Round|Shape=RoundedRectangle|*
%AMROUNDEDRECTD33*
21,1,1.6000,0.7000,0,0,270.0*
21,1,0.9000,1.4000,0,0,270.0*
1,1,0.7000,-0.3500,-0.4500*
1,1,0.7000,-0.3500,0.4500*
1,1,0.7000,0.3500,0.4500*
1,1,0.7000,0.3500,-0.4500*
%
%ADD33ROUNDEDRECTD33*%
%ADD34R,1.0000X0.9000*%
%ADD35R,1.0000X1.6000*%
%ADD36R,1.2000X1.2000*%
%ADD37R,0.2200X1.0000*%
%ADD38R,1.0000X0.6000*%
%ADD39R,1.6500X2.4000*%
%ADD40R,0.5000X0.4000*%
%ADD73C,0.3700*%
%ADD74R,1.6500X1.6500*%
%ADD75R,1.6500X2.4000*%
%ADD76R,5.0800X2.2860*%
%ADD77C,0.2032*%
%ADD78O,1.6000X0.9000*%
%ADD79C,0.4500*%
%ADD80C,0.6000*%
G36*
X80510Y167084D02*
X80540Y166739D01*
X80590Y166434D01*
X80660Y166170D01*
X80750Y165947D01*
X80860Y165764D01*
X80990Y165622D01*
X81140Y165520D01*
X81310Y165459D01*
X81500Y165439D01*
X77500D01*
X77690Y165459D01*
X77860Y165520D01*
X78010Y165622D01*
X78140Y165764D01*
X78250Y165947D01*
X78340Y166170D01*
X78410Y166434D01*
X78460Y166739D01*
X78490Y167084D01*
X78500Y167470D01*
X80500D01*
X80510Y167084D01*
D02*
G37*
G36*
X91310Y160541D02*
X91140Y160480D01*
X90990Y160378D01*
X90860Y160236D01*
X90750Y160053D01*
X90660Y159830D01*
X90590Y159566D01*
X90540Y159262D01*
X90510Y158916D01*
X90500Y158531D01*
X88500D01*
X88490Y158916D01*
X88460Y159262D01*
X88410Y159566D01*
X88340Y159830D01*
X88250Y160053D01*
X88140Y160236D01*
X88010Y160378D01*
X87860Y160480D01*
X87690Y160541D01*
X87500Y160561D01*
X91500D01*
X91310Y160541D01*
D02*
G37*
G36*
X127971Y198918D02*
X127971Y155000D01*
X111500D01*
X111500Y173500D01*
X81109Y173500D01*
X80990Y173421D01*
X80860Y173281D01*
X80750Y173100D01*
X80660Y172880D01*
X80590Y172621D01*
X80540Y172320D01*
X80510Y171980D01*
X80500Y171600D01*
X78500D01*
X78490Y171980D01*
X78460Y172320D01*
X78410Y172621D01*
X78340Y172880D01*
X78250Y173100D01*
X78140Y173281D01*
X78010Y173421D01*
X77891Y173500D01*
X61582D01*
Y198918D01*
X125431D01*
X127971Y198918D01*
D02*
G37*
G36*
X90510Y155084D02*
X90540Y154739D01*
X90590Y154434D01*
X90660Y154170D01*
X90750Y153947D01*
X90860Y153764D01*
X90990Y153622D01*
X91140Y153520D01*
X91310Y153459D01*
X91500Y153439D01*
X87500D01*
X87690Y153459D01*
X87860Y153520D01*
X88010Y153622D01*
X88140Y153764D01*
X88250Y153947D01*
X88340Y154170D01*
X88410Y154434D01*
X88460Y154739D01*
X88490Y155084D01*
X88500Y155470D01*
X90500D01*
X90510Y155084D01*
D02*
G37*
G36*
X691000Y151950D02*
X690500D01*
X685250Y153250D01*
Y156750D01*
X690500Y158050D01*
X691000D01*
Y151950D01*
D02*
G37*
G36*
X91969Y148531D02*
X91785Y148511D01*
X91621Y148450D01*
X91475Y148350D01*
X91349Y148210D01*
X91242Y148031D01*
X91155Y147810D01*
X91087Y147550D01*
X91039Y147250D01*
X91010Y146910D01*
X91000Y146531D01*
X89000D01*
X88990Y146915D01*
X88960Y147259D01*
X88910Y147563D01*
X88840Y147826D01*
X88750Y148049D01*
X88640Y148232D01*
X88510Y148375D01*
X88360Y148477D01*
X88190Y148539D01*
X88000Y148561D01*
X91969Y148531D01*
D02*
G37*
G36*
X80810Y148539D02*
X80640Y148477D01*
X80490Y148375D01*
X80360Y148232D01*
X80250Y148049D01*
X80160Y147826D01*
X80090Y147563D01*
X80040Y147259D01*
X80010Y146915D01*
X80000Y146531D01*
X78000D01*
X77990Y146910D01*
X77961Y147250D01*
X77913Y147550D01*
X77845Y147810D01*
X77758Y148031D01*
X77651Y148210D01*
X77525Y148350D01*
X77379Y148450D01*
X77215Y148511D01*
X77031Y148531D01*
X81000Y148561D01*
X80810Y148539D01*
D02*
G37*
G36*
X159000Y146000D02*
X151500D01*
Y165500D01*
X159000D01*
Y146000D01*
D02*
G37*
G36*
X148500D02*
X141000D01*
Y165500D01*
X148500D01*
Y146000D01*
D02*
G37*
G36*
X698918Y168000D02*
X689000D01*
X683000Y161000D01*
Y160659D01*
X231521D01*
X231413Y160637D01*
X226664Y160264D01*
X221927Y159126D01*
X217427Y157262D01*
X213273Y154717D01*
X209651Y151623D01*
X209559Y151562D01*
X205999Y148001D01*
X205912Y147872D01*
X204368Y146686D01*
X202426Y145882D01*
X200496Y145628D01*
X200343Y145659D01*
X193200D01*
Y146200D01*
X180800D01*
Y144490D01*
X172510D01*
X172029Y146831D01*
X172029Y198918D01*
X174569Y198918D01*
X698918Y198918D01*
Y168000D01*
D02*
G37*
G36*
X91010Y143090D02*
X91040Y142750D01*
X91090Y142450D01*
X91160Y142190D01*
X91250Y141969D01*
X91360Y141790D01*
X91490Y141650D01*
X91640Y141550D01*
X91810Y141489D01*
X92000Y141469D01*
X88000D01*
X88190Y141489D01*
X88360Y141550D01*
X88510Y141650D01*
X88640Y141790D01*
X88750Y141969D01*
X88840Y142190D01*
X88910Y142450D01*
X88960Y142750D01*
X88990Y143090D01*
X89000Y143469D01*
X91000D01*
X91010Y143090D01*
D02*
G37*
G36*
X80010Y143084D02*
X80040Y142739D01*
X80090Y142434D01*
X80160Y142170D01*
X80250Y141947D01*
X80360Y141764D01*
X80490Y141622D01*
X80640Y141520D01*
X80810Y141459D01*
X81000Y141439D01*
X77000D01*
X77190Y141459D01*
X77360Y141520D01*
X77510Y141622D01*
X77640Y141764D01*
X77750Y141947D01*
X77840Y142170D01*
X77910Y142434D01*
X77960Y142739D01*
X77990Y143084D01*
X78000Y143469D01*
X80000D01*
X80010Y143084D01*
D02*
G37*
G36*
X170000Y141250D02*
X161000D01*
Y145854D01*
X161029Y146000D01*
Y165500D01*
X160875Y166276D01*
X160810Y166373D01*
X160490Y167510D01*
X160490Y167510D01*
X160490D01*
X160490Y167510D01*
Y176490D01*
X152687D01*
X151510Y176490D01*
X150362Y176196D01*
X149346Y175994D01*
X147943Y175057D01*
X147006Y173654D01*
X146677Y172000D01*
X147006Y170346D01*
X147943Y168943D01*
X148159Y168799D01*
X147774Y167529D01*
X141000D01*
X140224Y167374D01*
X139565Y166935D01*
X139125Y166276D01*
X138971Y165500D01*
Y146000D01*
X139000Y145854D01*
Y141250D01*
X130000D01*
X130000Y198918D01*
X170000D01*
X170000Y141250D01*
D02*
G37*
G36*
X22466Y140274D02*
X22368Y140142D01*
X22282Y139998D01*
X22207Y139841D01*
X22144Y139672D01*
X22092Y139489D01*
X22052Y139295D01*
X22023Y139087D01*
X22006Y138867D01*
X22000Y138634D01*
X20000D01*
X19994Y138867D01*
X19977Y139087D01*
X19948Y139295D01*
X19908Y139489D01*
X19856Y139672D01*
X19793Y139841D01*
X19718Y139998D01*
X19632Y140142D01*
X19534Y140274D01*
X19425Y140393D01*
X22575D01*
X22466Y140274D01*
D02*
G37*
G36*
X120561Y137825D02*
X120541Y138015D01*
X120480Y138185D01*
X120378Y138335D01*
X120236Y138465D01*
X120053Y138575D01*
X119830Y138665D01*
X119566Y138735D01*
X119261Y138785D01*
X118916Y138815D01*
X118531Y138825D01*
Y140825D01*
X118916Y140835D01*
X119261Y140865D01*
X119566Y140915D01*
X119830Y140985D01*
X120053Y141075D01*
X120236Y141185D01*
X120378Y141315D01*
X120480Y141465D01*
X120541Y141635D01*
X120561Y141825D01*
Y137825D01*
D02*
G37*
G36*
X114459Y141635D02*
X114520Y141465D01*
X114622Y141315D01*
X114764Y141185D01*
X114947Y141075D01*
X115170Y140985D01*
X115434Y140915D01*
X115739Y140865D01*
X116084Y140835D01*
X116469Y140825D01*
Y138825D01*
X116084Y138815D01*
X115739Y138785D01*
X115434Y138735D01*
X115170Y138665D01*
X114947Y138575D01*
X114764Y138465D01*
X114622Y138335D01*
X114520Y138185D01*
X114459Y138015D01*
X114439Y137825D01*
Y141825D01*
X114459Y141635D01*
D02*
G37*
G36*
X98561Y137825D02*
X98541Y138015D01*
X98480Y138185D01*
X98378Y138335D01*
X98236Y138465D01*
X98053Y138575D01*
X97830Y138665D01*
X97566Y138735D01*
X97261Y138785D01*
X96916Y138815D01*
X96531Y138825D01*
Y140825D01*
X96916Y140835D01*
X97261Y140865D01*
X97566Y140915D01*
X97830Y140985D01*
X98053Y141075D01*
X98236Y141185D01*
X98378Y141315D01*
X98480Y141465D01*
X98541Y141635D01*
X98561Y141825D01*
Y137825D01*
D02*
G37*
G36*
X92490Y141347D02*
X92549Y141237D01*
X92649Y141141D01*
X92789Y141057D01*
X92970Y140986D01*
X93189Y140928D01*
X93449Y140883D01*
X93750Y140851D01*
X94469Y140825D01*
Y138825D01*
X94085Y138815D01*
X93741Y138785D01*
X93438Y138735D01*
X93174Y138665D01*
X92951Y138575D01*
X92768Y138465D01*
X92625Y138335D01*
X92523Y138185D01*
X92461Y138015D01*
X92439Y137825D01*
X92470Y141469D01*
X92490Y141347D01*
D02*
G37*
G36*
X76561Y137825D02*
X76539Y138015D01*
X76477Y138185D01*
X76375Y138335D01*
X76232Y138465D01*
X76049Y138575D01*
X75826Y138665D01*
X75563Y138735D01*
X75259Y138785D01*
X74915Y138815D01*
X74531Y138825D01*
Y140825D01*
X74910Y140832D01*
X75550Y140883D01*
X75810Y140928D01*
X76031Y140986D01*
X76210Y141057D01*
X76350Y141141D01*
X76451Y141237D01*
X76511Y141347D01*
X76530Y141469D01*
X76561Y137825D01*
D02*
G37*
G36*
X70459Y141635D02*
X70520Y141465D01*
X70622Y141315D01*
X70764Y141185D01*
X70947Y141075D01*
X71170Y140985D01*
X71434Y140915D01*
X71739Y140865D01*
X72084Y140835D01*
X72470Y140825D01*
Y138825D01*
X72084Y138815D01*
X71739Y138785D01*
X71434Y138735D01*
X71170Y138665D01*
X70947Y138575D01*
X70764Y138465D01*
X70622Y138335D01*
X70520Y138185D01*
X70459Y138015D01*
X70439Y137825D01*
Y141825D01*
X70459Y141635D01*
D02*
G37*
G36*
X65561Y137825D02*
X65541Y138015D01*
X65480Y138185D01*
X65378Y138335D01*
X65236Y138465D01*
X65053Y138575D01*
X64830Y138665D01*
X64566Y138735D01*
X64261Y138785D01*
X63916Y138815D01*
X63531Y138825D01*
Y140825D01*
X63916Y140835D01*
X64261Y140865D01*
X64566Y140915D01*
X64830Y140985D01*
X65053Y141075D01*
X65236Y141185D01*
X65378Y141315D01*
X65480Y141465D01*
X65541Y141635D01*
X65561Y141825D01*
Y137825D01*
D02*
G37*
G36*
X59459Y141635D02*
X59520Y141465D01*
X59622Y141315D01*
X59764Y141185D01*
X59947Y141075D01*
X60170Y140985D01*
X60434Y140915D01*
X60739Y140865D01*
X61084Y140835D01*
X61469Y140825D01*
Y138825D01*
X61084Y138815D01*
X60739Y138785D01*
X60434Y138735D01*
X60170Y138665D01*
X59947Y138575D01*
X59764Y138465D01*
X59622Y138335D01*
X59520Y138185D01*
X59459Y138015D01*
X59439Y137825D01*
Y141825D01*
X59459Y141635D01*
D02*
G37*
G36*
X174561Y137763D02*
X174542Y137943D01*
X174486Y138089D01*
X174393Y138203D01*
X174262Y138284D01*
X174094Y138333D01*
X173889Y138349D01*
X173646Y138332D01*
X173366Y138283D01*
X173049Y138201D01*
X172694Y138086D01*
X172622Y140313D01*
X172990Y140452D01*
X173320Y140598D01*
X173611Y140750D01*
X173863Y140908D01*
X174076Y141072D01*
X174251Y141243D01*
X174386Y141420D01*
X174483Y141603D01*
X174542Y141792D01*
X174561Y141988D01*
Y137763D01*
D02*
G37*
G36*
X22006Y138133D02*
X22023Y137913D01*
X22052Y137705D01*
X22092Y137510D01*
X22144Y137328D01*
X22207Y137159D01*
X22282Y137002D01*
X22368Y136858D01*
X22466Y136726D01*
X22575Y136607D01*
X19425D01*
X19534Y136726D01*
X19632Y136858D01*
X19718Y137002D01*
X19793Y137159D01*
X19856Y137328D01*
X19908Y137510D01*
X19948Y137705D01*
X19977Y137913D01*
X19994Y138133D01*
X20000Y138366D01*
X22000D01*
X22006Y138133D01*
D02*
G37*
G36*
X132420Y136420D02*
X132394Y136435D01*
X132328Y136448D01*
X132223Y136460D01*
X131896Y136479D01*
X130387Y136499D01*
X130386Y138499D01*
X132420Y138580D01*
Y136420D01*
D02*
G37*
G36*
X178810Y137541D02*
X178640Y137480D01*
X178490Y137378D01*
X178360Y137236D01*
X178250Y137053D01*
X178160Y136830D01*
X178090Y136566D01*
X178040Y136261D01*
X178010Y135916D01*
X178000Y135531D01*
X176000D01*
X175990Y135916D01*
X175960Y136261D01*
X175910Y136566D01*
X175840Y136830D01*
X175750Y137053D01*
X175640Y137236D01*
X175510Y137378D01*
X175360Y137480D01*
X175190Y137541D01*
X175000Y137561D01*
X179000D01*
X178810Y137541D01*
D02*
G37*
G36*
X22726Y136466D02*
X22857Y136368D01*
X23002Y136282D01*
X23159Y136207D01*
X23328Y136144D01*
X23510Y136092D01*
X23705Y136052D01*
X23913Y136023D01*
X24133Y136006D01*
X24366Y136000D01*
Y134000D01*
X24133Y133994D01*
X23913Y133977D01*
X23705Y133948D01*
X23510Y133908D01*
X23328Y133856D01*
X23159Y133793D01*
X23002Y133718D01*
X22857Y133632D01*
X22726Y133534D01*
X22607Y133425D01*
Y136575D01*
X22726Y136466D01*
D02*
G37*
G36*
X19393Y133425D02*
X19274Y133534D01*
X19143Y133632D01*
X18998Y133718D01*
X18841Y133793D01*
X18672Y133856D01*
X18490Y133908D01*
X18295Y133948D01*
X18087Y133977D01*
X17867Y133994D01*
X17635Y134000D01*
Y136000D01*
X17867Y136006D01*
X18087Y136023D01*
X18295Y136052D01*
X18490Y136092D01*
X18672Y136144D01*
X18841Y136207D01*
X18998Y136282D01*
X19143Y136368D01*
X19274Y136466D01*
X19393Y136575D01*
Y133425D01*
D02*
G37*
G36*
X22466Y133274D02*
X22368Y133142D01*
X22282Y132998D01*
X22207Y132841D01*
X22144Y132672D01*
X22092Y132490D01*
X22052Y132295D01*
X22023Y132087D01*
X22006Y131867D01*
X22000Y131635D01*
X20000D01*
X19994Y131867D01*
X19977Y132087D01*
X19948Y132295D01*
X19908Y132490D01*
X19856Y132672D01*
X19793Y132841D01*
X19718Y132998D01*
X19632Y133142D01*
X19534Y133274D01*
X19425Y133393D01*
X22575D01*
X22466Y133274D01*
D02*
G37*
G36*
X132420Y131420D02*
X132394Y131435D01*
X132328Y131448D01*
X132224Y131460D01*
X131896Y131478D01*
X130388Y131497D01*
X130386Y133497D01*
X132420Y133580D01*
Y131420D01*
D02*
G37*
G36*
X54561Y128175D02*
X54541Y128365D01*
X54480Y128535D01*
X54378Y128685D01*
X54236Y128815D01*
X54053Y128925D01*
X53830Y129015D01*
X53566Y129085D01*
X53261Y129135D01*
X52916Y129165D01*
X52650Y129172D01*
X52384Y129165D01*
X52039Y129135D01*
X51734Y129085D01*
X51470Y129015D01*
X51247Y128925D01*
X51064Y128815D01*
X50922Y128685D01*
X50820Y128535D01*
X50759Y128365D01*
X50739Y128175D01*
Y132175D01*
X50759Y131985D01*
X50820Y131815D01*
X50922Y131665D01*
X51064Y131535D01*
X51247Y131425D01*
X51470Y131335D01*
X51734Y131265D01*
X52039Y131215D01*
X52384Y131185D01*
X52650Y131178D01*
X52916Y131185D01*
X53261Y131215D01*
X53566Y131265D01*
X53830Y131335D01*
X54053Y131425D01*
X54236Y131535D01*
X54378Y131665D01*
X54480Y131815D01*
X54541Y131985D01*
X54561Y132175D01*
Y128175D01*
D02*
G37*
G36*
X178010Y132084D02*
X178040Y131739D01*
X178090Y131434D01*
X178160Y131170D01*
X178250Y130947D01*
X178360Y130764D01*
X178490Y130622D01*
X178640Y130520D01*
X178810Y130459D01*
X179000Y130439D01*
X175000D01*
X175190Y130459D01*
X175360Y130520D01*
X175510Y130622D01*
X175640Y130764D01*
X175750Y130947D01*
X175840Y131170D01*
X175910Y131434D01*
X175960Y131739D01*
X175990Y132084D01*
X176000Y132470D01*
X178000D01*
X178010Y132084D01*
D02*
G37*
G36*
X22006Y131133D02*
X22023Y130913D01*
X22052Y130705D01*
X22092Y130511D01*
X22144Y130328D01*
X22207Y130159D01*
X22282Y130002D01*
X22368Y129858D01*
X22466Y129726D01*
X22575Y129607D01*
X19425D01*
X19534Y129726D01*
X19632Y129858D01*
X19718Y130002D01*
X19793Y130159D01*
X19856Y130328D01*
X19908Y130511D01*
X19948Y130705D01*
X19977Y130913D01*
X19994Y131133D01*
X20000Y131365D01*
X22000D01*
X22006Y131133D01*
D02*
G37*
G36*
X87530Y128531D02*
X87510Y128653D01*
X87451Y128763D01*
X87351Y128859D01*
X87211Y128943D01*
X87030Y129014D01*
X86811Y129072D01*
X86551Y129117D01*
X86250Y129149D01*
X85531Y129175D01*
Y131175D01*
X85915Y131185D01*
X86259Y131215D01*
X86562Y131265D01*
X86826Y131335D01*
X87049Y131425D01*
X87232Y131535D01*
X87375Y131665D01*
X87477Y131815D01*
X87539Y131985D01*
X87561Y132175D01*
X87530Y128531D01*
D02*
G37*
G36*
X81461Y131985D02*
X81523Y131815D01*
X81625Y131665D01*
X81768Y131535D01*
X81951Y131425D01*
X82174Y131335D01*
X82437Y131265D01*
X82741Y131215D01*
X83085Y131185D01*
X83469Y131175D01*
Y129175D01*
X83090Y129169D01*
X82450Y129117D01*
X82190Y129072D01*
X81969Y129014D01*
X81790Y128943D01*
X81650Y128859D01*
X81550Y128763D01*
X81489Y128653D01*
X81469Y128531D01*
X81439Y132175D01*
X81461Y131985D01*
D02*
G37*
G36*
X109561Y128175D02*
X109541Y128365D01*
X109480Y128535D01*
X109378Y128685D01*
X109236Y128815D01*
X109053Y128925D01*
X108830Y129015D01*
X108566Y129085D01*
X108261Y129135D01*
X107916Y129165D01*
X107530Y129175D01*
Y131175D01*
X107916Y131185D01*
X108261Y131215D01*
X108566Y131265D01*
X108830Y131335D01*
X109053Y131425D01*
X109236Y131535D01*
X109378Y131665D01*
X109480Y131815D01*
X109541Y131985D01*
X109561Y132175D01*
Y128175D01*
D02*
G37*
G36*
X103459Y131985D02*
X103520Y131815D01*
X103622Y131665D01*
X103764Y131535D01*
X103947Y131425D01*
X104170Y131335D01*
X104434Y131265D01*
X104739Y131215D01*
X105084Y131185D01*
X105470Y131175D01*
Y129175D01*
X105084Y129165D01*
X104739Y129135D01*
X104434Y129085D01*
X104170Y129015D01*
X103947Y128925D01*
X103764Y128815D01*
X103622Y128685D01*
X103520Y128535D01*
X103459Y128365D01*
X103439Y128175D01*
Y132175D01*
X103459Y131985D01*
D02*
G37*
G36*
X209489Y130285D02*
X209550Y130120D01*
X209650Y129975D01*
X209790Y129849D01*
X209970Y129742D01*
X210189Y129655D01*
X210450Y129587D01*
X210749Y129539D01*
X211089Y129510D01*
X211469Y129500D01*
Y127500D01*
X211089Y127490D01*
X210749Y127460D01*
X210450Y127410D01*
X210189Y127340D01*
X209970Y127250D01*
X209790Y127140D01*
X209650Y127010D01*
X209550Y126860D01*
X209489Y126690D01*
X209470Y126500D01*
Y130470D01*
X209489Y130285D01*
D02*
G37*
G36*
X194561Y126031D02*
X194541Y126221D01*
X194480Y126390D01*
X194378Y126540D01*
X194236Y126671D01*
X194053Y126781D01*
X193830Y126870D01*
X193566Y126940D01*
X193262Y126990D01*
X192916Y127021D01*
X192530Y127030D01*
Y129031D01*
X192916Y129040D01*
X193262Y129071D01*
X193566Y129121D01*
X193830Y129191D01*
X194053Y129281D01*
X194236Y129390D01*
X194378Y129521D01*
X194480Y129670D01*
X194541Y129840D01*
X194561Y130030D01*
Y126031D01*
D02*
G37*
G36*
X189459Y129840D02*
X189520Y129670D01*
X189622Y129521D01*
X189764Y129390D01*
X189947Y129281D01*
X190170Y129191D01*
X190434Y129121D01*
X190739Y129071D01*
X191084Y129040D01*
X191469Y129031D01*
Y127030D01*
X191084Y127021D01*
X190739Y126990D01*
X190434Y126940D01*
X190170Y126870D01*
X189947Y126781D01*
X189764Y126671D01*
X189622Y126540D01*
X189520Y126390D01*
X189459Y126221D01*
X189439Y126031D01*
Y130030D01*
X189459Y129840D01*
D02*
G37*
G36*
X69810Y127510D02*
X69640Y127451D01*
X69490Y127351D01*
X69360Y127211D01*
X69250Y127030D01*
X69160Y126811D01*
X69090Y126551D01*
X69040Y126250D01*
X69010Y125911D01*
X69000Y125531D01*
X67000D01*
X66990Y125911D01*
X66960Y126250D01*
X66910Y126551D01*
X66840Y126811D01*
X66750Y127030D01*
X66640Y127211D01*
X66510Y127351D01*
X66360Y127451D01*
X66190Y127510D01*
X66000Y127530D01*
X70000D01*
X69810Y127510D01*
D02*
G37*
G36*
X137169Y126266D02*
X136996Y126205D01*
X136844Y126102D01*
X136712Y125957D01*
X136600Y125772D01*
X136509Y125545D01*
X136437Y125277D01*
X136387Y124967D01*
X136356Y124617D01*
X136346Y124225D01*
X134314D01*
X134304Y124617D01*
X134273Y124967D01*
X134222Y125277D01*
X134151Y125545D01*
X134060Y125772D01*
X133948Y125957D01*
X133816Y126102D01*
X133664Y126205D01*
X133491Y126266D01*
X133298Y126287D01*
X137362D01*
X137169Y126266D01*
D02*
G37*
G36*
X198810Y125541D02*
X198640Y125480D01*
X198490Y125378D01*
X198360Y125236D01*
X198250Y125053D01*
X198160Y124830D01*
X198090Y124566D01*
X198040Y124261D01*
X198010Y123916D01*
X198000Y123531D01*
X196000D01*
X195990Y123916D01*
X195960Y124261D01*
X195910Y124566D01*
X195840Y124830D01*
X195750Y125053D01*
X195640Y125236D01*
X195510Y125378D01*
X195360Y125480D01*
X195190Y125541D01*
X195000Y125561D01*
X199000D01*
X198810Y125541D01*
D02*
G37*
G36*
X191490Y123510D02*
X193951Y123321D01*
Y120490D01*
X192510D01*
Y111510D01*
X193626D01*
Y100909D01*
X193344Y100627D01*
X193344Y100626D01*
X188513Y95795D01*
X187852Y94806D01*
X187620Y93640D01*
Y73682D01*
X187852Y72516D01*
X188513Y71527D01*
X190096Y69944D01*
X191085Y69283D01*
X192251Y69051D01*
X192705D01*
X193344Y68094D01*
X194333Y67434D01*
X195500Y67201D01*
X195724Y66975D01*
X195664Y66056D01*
X195066Y64025D01*
X193903Y63248D01*
X193319Y62374D01*
X190490D01*
Y63490D01*
X183030D01*
X181510Y63490D01*
X178970Y63490D01*
X171510D01*
Y62049D01*
X125513D01*
X73500Y114061D01*
Y117000D01*
X127971Y117000D01*
Y76000D01*
X128125Y75224D01*
X128565Y74565D01*
X129223Y74125D01*
X130000Y73971D01*
X170000D01*
X170777Y74125D01*
X171435Y74565D01*
X171875Y75224D01*
X172029Y76000D01*
Y121169D01*
X172510Y123510D01*
X179970D01*
X181490Y123510D01*
X184030Y123510D01*
X191490D01*
X191490Y123510D01*
D02*
G37*
G36*
X136352Y123513D02*
X136369Y123289D01*
X136399Y123079D01*
X136440Y122881D01*
X136492Y122696D01*
X136556Y122523D01*
X136632Y122364D01*
X136720Y122217D01*
X136819Y122084D01*
X136930Y121962D01*
X133730D01*
X133841Y122084D01*
X133940Y122217D01*
X134028Y122364D01*
X134104Y122523D01*
X134168Y122696D01*
X134221Y122881D01*
X134261Y123079D01*
X134291Y123289D01*
X134308Y123513D01*
X134314Y123749D01*
X136346D01*
X136352Y123513D01*
D02*
G37*
G36*
X198010Y120084D02*
X198040Y119739D01*
X198090Y119434D01*
X198160Y119170D01*
X198250Y118947D01*
X198360Y118764D01*
X198490Y118622D01*
X198640Y118520D01*
X198810Y118459D01*
X199000Y118439D01*
X195000D01*
X195190Y118459D01*
X195360Y118520D01*
X195510Y118622D01*
X195640Y118764D01*
X195750Y118947D01*
X195840Y119170D01*
X195910Y119434D01*
X195960Y119739D01*
X195990Y120084D01*
X196000Y120470D01*
X198000D01*
X198010Y120084D01*
D02*
G37*
G36*
X218810Y113539D02*
X218640Y113477D01*
X218490Y113375D01*
X218360Y113232D01*
X218250Y113049D01*
X218160Y112826D01*
X218090Y112562D01*
X218040Y112259D01*
X218010Y111915D01*
X218000Y111531D01*
X216000D01*
X215995Y111910D01*
X215925Y112810D01*
X215883Y113031D01*
X215831Y113210D01*
X215770Y113350D01*
X215700Y113450D01*
X215620Y113511D01*
X215530Y113531D01*
X219000Y113561D01*
X218810Y113539D01*
D02*
G37*
G36*
X198485Y113541D02*
X198315Y113480D01*
X198165Y113378D01*
X198035Y113236D01*
X197925Y113053D01*
X197835Y112830D01*
X197765Y112566D01*
X197715Y112261D01*
X197685Y111916D01*
X197675Y111531D01*
X195675D01*
X195665Y111916D01*
X195635Y112261D01*
X195585Y112566D01*
X195515Y112830D01*
X195425Y113053D01*
X195315Y113236D01*
X195185Y113378D01*
X195035Y113480D01*
X194865Y113541D01*
X194675Y113561D01*
X198675D01*
X198485Y113541D01*
D02*
G37*
G36*
X208839Y113540D02*
X208666Y113478D01*
X208514Y113375D01*
X208382Y113231D01*
X208270Y113045D01*
X208179Y112818D01*
X208107Y112550D01*
X208057Y112241D01*
X208026Y111890D01*
X208016Y111498D01*
X205984D01*
X205974Y111890D01*
X205943Y112241D01*
X205893Y112550D01*
X205821Y112818D01*
X205730Y113045D01*
X205618Y113231D01*
X205486Y113375D01*
X205334Y113478D01*
X205161Y113540D01*
X204968Y113561D01*
X209032D01*
X208839Y113540D01*
D02*
G37*
G36*
X218010Y108084D02*
X218040Y107739D01*
X218090Y107434D01*
X218160Y107170D01*
X218250Y106947D01*
X218360Y106764D01*
X218490Y106622D01*
X218640Y106520D01*
X218810Y106459D01*
X219000Y106439D01*
X215000D01*
X215190Y106459D01*
X215360Y106520D01*
X215510Y106622D01*
X215640Y106764D01*
X215750Y106947D01*
X215840Y107170D01*
X215910Y107434D01*
X215960Y107739D01*
X215990Y108084D01*
X216000Y108469D01*
X218000D01*
X218010Y108084D01*
D02*
G37*
G36*
X208026Y108110D02*
X208057Y107759D01*
X208107Y107450D01*
X208179Y107182D01*
X208270Y106955D01*
X208382Y106769D01*
X208514Y106625D01*
X208666Y106522D01*
X208839Y106460D01*
X209032Y106439D01*
X204968D01*
X205161Y106460D01*
X205334Y106522D01*
X205486Y106625D01*
X205618Y106769D01*
X205730Y106955D01*
X205821Y107182D01*
X205893Y107450D01*
X205943Y107759D01*
X205974Y108110D01*
X205984Y108502D01*
X208016D01*
X208026Y108110D01*
D02*
G37*
G36*
X170000Y76000D02*
X130000D01*
Y117565D01*
X131270Y117951D01*
X131943Y116943D01*
X133346Y116006D01*
X135000Y115677D01*
X136654Y116006D01*
X138057Y116943D01*
X138994Y118346D01*
X139323Y120000D01*
X138994Y121654D01*
X138395Y122551D01*
Y122981D01*
X139000Y124000D01*
X148901D01*
X149209Y123625D01*
Y117875D01*
X149412Y116855D01*
X149452Y116794D01*
Y112490D01*
X148510D01*
Y103510D01*
X157490D01*
Y112490D01*
X155549D01*
Y116796D01*
X155588Y116855D01*
X155791Y117875D01*
Y123625D01*
X156099Y124000D01*
X161000D01*
Y133750D01*
X170000D01*
Y76000D01*
D02*
G37*
G36*
X219459Y105810D02*
X219520Y105640D01*
X219622Y105490D01*
X219764Y105360D01*
X219947Y105250D01*
X220170Y105160D01*
X220434Y105090D01*
X220739Y105040D01*
X221084Y105010D01*
X221469Y105000D01*
Y103000D01*
X221084Y102990D01*
X220739Y102960D01*
X220434Y102910D01*
X220170Y102840D01*
X219947Y102750D01*
X219764Y102640D01*
X219622Y102510D01*
X219520Y102360D01*
X219459Y102190D01*
X219439Y102000D01*
Y106000D01*
X219459Y105810D01*
D02*
G37*
G36*
X243939Y117734D02*
X243010Y115490D01*
X243010D01*
Y95510D01*
X244293D01*
X246471Y94000D01*
Y69000D01*
X246625Y68224D01*
X247065Y67565D01*
X247724Y67126D01*
X248500Y66971D01*
X250205D01*
X250455Y64431D01*
X250054Y64351D01*
X248403Y63248D01*
X245716Y63618D01*
X212262Y97073D01*
X213417Y99510D01*
X214030Y99510D01*
X221490D01*
X221490Y99510D01*
X223654Y100006D01*
X223788Y100095D01*
X225057Y100943D01*
X225994Y102346D01*
X226323Y104000D01*
X225994Y105654D01*
X225057Y107057D01*
X223654Y107994D01*
X223601Y108005D01*
X221948Y110705D01*
X222257Y111510D01*
X222490D01*
Y120490D01*
X214030D01*
X213510Y120490D01*
X211490D01*
X210970Y120490D01*
X204030D01*
X202510Y120490D01*
X200049Y120680D01*
Y123320D01*
X202510Y123510D01*
X204030Y123510D01*
X211490D01*
Y125451D01*
X236222D01*
X243939Y117734D01*
D02*
G37*
G36*
X208514Y101540D02*
X208341Y101479D01*
X208189Y101375D01*
X208057Y101231D01*
X207945Y101045D01*
X207854Y100819D01*
X207782Y100550D01*
X207732Y100241D01*
X207701Y99890D01*
X207691Y99499D01*
X205659D01*
X205649Y99890D01*
X205618Y100241D01*
X205568Y100550D01*
X205496Y100819D01*
X205405Y101045D01*
X205293Y101231D01*
X205161Y101375D01*
X205009Y101479D01*
X204836Y101540D01*
X204643Y101561D01*
X208707D01*
X208514Y101540D01*
D02*
G37*
G36*
X289500Y94000D02*
Y76750D01*
X264000D01*
Y69000D01*
X248500D01*
Y94000D01*
X289500Y94000D01*
D02*
G37*
G36*
X231521Y149341D02*
X683000D01*
Y149000D01*
X689000Y142000D01*
X698918D01*
Y1082D01*
X136832D01*
Y27000D01*
X136515Y27765D01*
X73500Y90780D01*
Y102120D01*
X75847Y103092D01*
X122094Y56844D01*
X123083Y56184D01*
X124250Y55951D01*
X171510D01*
Y54510D01*
X172951D01*
Y51490D01*
X171510D01*
Y42510D01*
X180490D01*
Y51490D01*
X179049D01*
Y54320D01*
X181510Y54510D01*
X183030Y54510D01*
X190490D01*
Y56277D01*
X193754D01*
X193903Y56053D01*
X195208Y55182D01*
X195652Y53513D01*
X195733Y52325D01*
X195068Y51779D01*
X192500D01*
X191723Y51624D01*
X191065Y51185D01*
X190625Y50526D01*
X190471Y49750D01*
Y15000D01*
X190625Y14224D01*
X191065Y13565D01*
X191723Y13125D01*
X192500Y12971D01*
X210000D01*
X210777Y13125D01*
X211435Y13565D01*
X211875Y14224D01*
X212029Y15000D01*
Y49750D01*
X211875Y50526D01*
X211435Y51185D01*
X210777Y51624D01*
X210000Y51779D01*
X207306D01*
X206001Y52039D01*
Y54563D01*
X207948Y54950D01*
X209598Y56053D01*
X210701Y57704D01*
X211089Y59651D01*
X210701Y61598D01*
X209598Y63248D01*
X207948Y64351D01*
X206001Y64739D01*
Y67263D01*
X207948Y67650D01*
X209598Y68753D01*
X210701Y70404D01*
X211089Y72351D01*
X210701Y74298D01*
X209598Y75948D01*
X207948Y77051D01*
X206001Y77439D01*
Y79963D01*
X207948Y80350D01*
X209598Y81453D01*
X210701Y83104D01*
X211089Y85051D01*
X210857Y86217D01*
X213197Y87468D01*
X243433Y57233D01*
X244427Y56568D01*
X245600Y56335D01*
X248215D01*
X248403Y56053D01*
X250054Y54950D01*
X252001Y54563D01*
Y52039D01*
X250054Y51651D01*
X248403Y50548D01*
X247300Y48898D01*
X246913Y46951D01*
X247300Y45004D01*
X248403Y43353D01*
X250054Y42250D01*
X252001Y41863D01*
X260501D01*
X262448Y42250D01*
X264098Y43353D01*
X265201Y45004D01*
X265588Y46951D01*
X265201Y48898D01*
X264098Y50548D01*
X262448Y51651D01*
X260501Y52039D01*
Y54563D01*
X262448Y54950D01*
X264098Y56053D01*
X265201Y57704D01*
X265588Y59651D01*
X265201Y61598D01*
X264098Y63248D01*
X262448Y64351D01*
X262047Y64431D01*
X262297Y66971D01*
X264000D01*
X264776Y67126D01*
X265435Y67565D01*
X265875Y68224D01*
X266029Y69000D01*
Y74721D01*
X289500D01*
X290276Y74875D01*
X290935Y75315D01*
X291374Y75974D01*
X291529Y76750D01*
Y94000D01*
X291374Y94776D01*
X290935Y95435D01*
X290276Y95875D01*
X289500Y96029D01*
X278478D01*
X277000Y96323D01*
X275522Y96029D01*
X259990Y96029D01*
Y115490D01*
X254590D01*
X254156Y116141D01*
X239641Y130656D01*
X238652Y131317D01*
X237485Y131549D01*
X211490D01*
Y132490D01*
X205481D01*
X205104Y135030D01*
X207729Y135826D01*
X211066Y137610D01*
X213868Y139909D01*
X214001Y139999D01*
X217562Y143559D01*
X217709Y143779D01*
X220511Y146078D01*
X223937Y147910D01*
X227655Y149038D01*
X231262Y149393D01*
X231521Y149341D01*
D02*
G37*
G36*
X210000Y15000D02*
X192500D01*
Y49750D01*
X210000D01*
Y15000D01*
D02*
G37*
%LPC*%
G36*
X267990Y183990D02*
X258010D01*
Y170010D01*
X267990D01*
Y171525D01*
X270262Y172954D01*
X270530Y172969D01*
X272000Y172677D01*
X273654Y173006D01*
X275057Y173943D01*
X275994Y175346D01*
X276323Y177000D01*
X275994Y178654D01*
X275057Y180057D01*
X273654Y180994D01*
X272000Y181323D01*
X270530Y181031D01*
X270262Y181046D01*
X267990Y182475D01*
Y183990D01*
D02*
G37*
G36*
X237490Y184990D02*
X221510D01*
Y169010D01*
X237490D01*
Y174202D01*
X244010D01*
Y170010D01*
X253990D01*
Y183990D01*
X244010D01*
Y180299D01*
X237490D01*
Y184990D01*
D02*
G37*
G36*
X538510Y132490D02*
X537490D01*
Y132490D01*
X535970Y132490D01*
X528510D01*
Y123510D01*
X532179D01*
X533852Y121837D01*
X532880Y119490D01*
X528510D01*
Y110510D01*
X531702D01*
Y99223D01*
X529161Y98171D01*
X526166Y101166D01*
X525000Y101650D01*
X497000D01*
X495834Y101166D01*
X494834Y100166D01*
X494350Y99000D01*
X494350Y88000D01*
X494833Y86834D01*
X495834Y85834D01*
X497000Y85350D01*
X530976Y85350D01*
X531750Y85197D01*
X537750D01*
X539014Y85448D01*
X540086Y86164D01*
X540644Y87000D01*
X546000D01*
Y77954D01*
X545236Y77802D01*
X544908Y77583D01*
X543092D01*
X542764Y77802D01*
X541500Y78053D01*
X540236Y77802D01*
X539164Y77086D01*
X538448Y76014D01*
X538197Y74750D01*
Y68750D01*
X538370Y67879D01*
Y59617D01*
X537743Y58990D01*
X537010D01*
Y58257D01*
X536853Y58100D01*
X536370Y56933D01*
Y41840D01*
X536370Y40933D01*
X536370Y40933D01*
X536653Y40250D01*
X536653Y40250D01*
X536853Y39767D01*
X537010Y39565D01*
X537010Y39010D01*
X539019Y38284D01*
X539019Y38284D01*
X539249Y38284D01*
X546019D01*
X547186Y38767D01*
X547286Y39010D01*
X547490D01*
Y39502D01*
X547669Y39934D01*
Y60931D01*
X548604Y61490D01*
X550350Y60511D01*
Y40000D01*
X550510Y39615D01*
Y39010D01*
X550760D01*
X550834Y38834D01*
X552000Y38350D01*
X559000D01*
X560166Y38834D01*
X560343Y39010D01*
X560990D01*
Y39657D01*
X561166Y39834D01*
X561650Y41000D01*
Y57000D01*
X561166Y58166D01*
X560990Y58343D01*
Y58990D01*
X560343D01*
X559650Y59683D01*
Y67976D01*
X559804Y68750D01*
Y72715D01*
X560182Y74818D01*
X562285Y75196D01*
X565471D01*
X572834Y67834D01*
X574000Y67350D01*
X591939D01*
X593578Y65407D01*
X592834Y64166D01*
X592350Y63000D01*
Y57000D01*
X592350Y27000D01*
X592834Y25834D01*
X594010Y24657D01*
Y24010D01*
X594657D01*
X594834Y23834D01*
X596000Y23350D01*
X606000D01*
X607166Y23834D01*
X607343Y24010D01*
X607990D01*
Y24657D01*
X609166Y25834D01*
X609650Y27000D01*
X609650Y53000D01*
Y63000D01*
X609166Y64166D01*
X609137Y64195D01*
X608134Y66000D01*
X609137Y67805D01*
X609166Y67834D01*
X609650Y69000D01*
Y79000D01*
X609166Y80166D01*
X608166Y81166D01*
X607000Y81650D01*
X605840D01*
X603650Y83000D01*
X603650Y94000D01*
X603367Y94683D01*
X603167Y95166D01*
X602166Y96166D01*
X601000Y96650D01*
X575049D01*
Y121000D01*
X574817Y122167D01*
X574156Y123156D01*
X569490Y127821D01*
Y132490D01*
X561956D01*
X560510Y132490D01*
Y132490D01*
X559490D01*
X559490Y132490D01*
X558044Y132490D01*
X550510D01*
Y131049D01*
X547490D01*
Y132490D01*
X538510D01*
Y132490D01*
D02*
G37*
G36*
X370000Y127650D02*
X347000D01*
X345834Y127166D01*
X344834Y126166D01*
X344350Y125000D01*
Y113000D01*
X344833Y111834D01*
X345834Y110834D01*
X347000Y110350D01*
X357317D01*
X357350Y110317D01*
Y90240D01*
X357010D01*
Y83815D01*
X356490Y81490D01*
X347510D01*
Y72510D01*
X354205D01*
X354622Y72476D01*
X356147Y71648D01*
X356842Y70743D01*
X356902Y70426D01*
X357010Y68793D01*
X357010Y67893D01*
Y63760D01*
X357350D01*
Y43683D01*
X357317Y43650D01*
X347000D01*
X345834Y43166D01*
X344834Y42166D01*
X344350Y41000D01*
Y29000D01*
X344833Y27834D01*
X345834Y26834D01*
X347000Y26350D01*
X370000D01*
X371166Y26834D01*
X372166Y27834D01*
X372650Y29000D01*
Y59000D01*
X372166Y60166D01*
X367990Y64343D01*
Y70240D01*
X359488D01*
X359295Y70240D01*
X359184Y70254D01*
X357866Y72892D01*
X357997Y73125D01*
X358306Y73616D01*
X358356Y73653D01*
X358501Y73760D01*
X367990D01*
Y78760D01*
Y90240D01*
X367990Y90240D01*
X367990D01*
X367990Y90240D01*
X368784Y92451D01*
X372166Y95834D01*
X372650Y97000D01*
Y125000D01*
X372166Y126166D01*
X371166Y127166D01*
X370000Y127650D01*
D02*
G37*
G36*
X661500Y56568D02*
X652000D01*
X650443Y56259D01*
X649123Y55377D01*
X648242Y54057D01*
X647932Y52500D01*
X648242Y50943D01*
X648964Y49250D01*
X648242Y47557D01*
X647932Y46000D01*
X648242Y44443D01*
X648964Y42750D01*
X648242Y41057D01*
X648014Y39911D01*
X646732Y39190D01*
X645469Y38864D01*
X640166Y44166D01*
X639000Y44650D01*
X626277D01*
X626000Y44650D01*
X626000Y44650D01*
X624010Y43990D01*
X624010Y43343D01*
X623834Y43166D01*
X623516Y42400D01*
X623350Y42000D01*
Y26277D01*
X623350Y26000D01*
X623350Y26000D01*
X624010Y24010D01*
X624657Y24010D01*
X624834Y23834D01*
X626000Y23350D01*
X661000D01*
X662166Y23834D01*
X665166Y26834D01*
X665650Y28000D01*
Y35000D01*
X665166Y36166D01*
X665258Y37943D01*
X665568Y39500D01*
X665258Y41057D01*
X664536Y42750D01*
X665258Y44443D01*
X665568Y46000D01*
X665258Y47557D01*
X664536Y49250D01*
X665258Y50943D01*
X665568Y52500D01*
X665258Y54057D01*
X664377Y55377D01*
X663057Y56259D01*
X661500Y56568D01*
D02*
G37*
G36*
X397000Y134650D02*
X395834Y134166D01*
X394833Y133166D01*
X394516Y132400D01*
X394350Y132000D01*
Y98683D01*
X394317Y98650D01*
X389000D01*
X387834Y98166D01*
X386833Y97166D01*
X386516Y96400D01*
X386350Y96000D01*
Y90240D01*
X386010D01*
Y83956D01*
X385971Y83760D01*
Y80500D01*
X386010Y80304D01*
Y73386D01*
X385981Y73240D01*
Y70240D01*
X386010Y70094D01*
Y63760D01*
X386350D01*
Y57000D01*
X386833Y55834D01*
X387833Y54834D01*
X389000Y54350D01*
X394317D01*
X394350Y54317D01*
Y22000D01*
X394833Y20834D01*
X395834Y19834D01*
X397000Y19350D01*
X425000Y19350D01*
X426166Y19834D01*
X427166Y20834D01*
X427650Y22000D01*
X427649Y55970D01*
X428490Y58510D01*
D01*
X429039Y59556D01*
X429384Y60214D01*
X429539Y60991D01*
Y68510D01*
X429384Y69286D01*
X428945Y69945D01*
X428490Y70248D01*
Y77490D01*
X428490D01*
X429343Y79677D01*
X429375Y79724D01*
X429529Y80500D01*
Y86750D01*
X429375Y87526D01*
X428935Y88185D01*
X428490Y88482D01*
Y88490D01*
X428468Y88496D01*
X428276Y88624D01*
X427501Y88779D01*
X427500Y88779D01*
X426070Y88779D01*
X422568D01*
X422322Y88982D01*
X421081Y91319D01*
X421160Y91510D01*
Y94699D01*
X423000Y96677D01*
X423822Y96840D01*
X424490D01*
X425656Y97324D01*
X427166Y98834D01*
X427650Y100000D01*
X427649Y132000D01*
X427166Y133166D01*
X426166Y134166D01*
X425000Y134649D01*
X397000Y134650D01*
D02*
G37*
%LPD*%
G36*
X530000Y95000D02*
X538000D01*
Y87000D01*
X497000Y87000D01*
X496000Y88000D01*
X496000Y99000D01*
X497000Y100000D01*
X525000D01*
X530000Y95000D01*
D02*
G37*
G36*
X602000Y94000D02*
X602000Y83000D01*
X601000Y82000D01*
X560000Y82000D01*
Y90000D01*
X568000D01*
X573000Y95000D01*
X601000D01*
X602000Y94000D01*
D02*
G37*
G36*
X608000Y79000D02*
Y69000D01*
X606000Y67000D01*
X595000D01*
X593000Y69000D01*
X574000D01*
X566000Y77000D01*
X560000D01*
Y80000D01*
X607000D01*
X608000Y79000D01*
D02*
G37*
G36*
X558000Y75000D02*
Y59000D01*
X560000Y57000D01*
Y41000D01*
X559000Y40000D01*
X552000D01*
Y65000D01*
X550000Y67000D01*
Y76000D01*
X557000D01*
X558000Y75000D01*
D02*
G37*
G36*
X548019Y66933D02*
X546019Y64934D01*
Y39934D01*
X539019D01*
X538019Y40933D01*
Y56933D01*
X540019Y58934D01*
Y74934D01*
X541019Y75933D01*
X548019D01*
Y66933D01*
D02*
G37*
G36*
X608000Y63000D02*
Y53000D01*
X608000Y27000D01*
X606000Y25000D01*
X596000D01*
X594000Y27000D01*
X594000Y57000D01*
Y63000D01*
X596000Y65000D01*
X606000D01*
X608000Y63000D01*
D02*
G37*
G36*
X371000Y125000D02*
Y97000D01*
X366000Y92000D01*
Y80750D01*
X359000D01*
Y111000D01*
X358000Y112000D01*
X347000D01*
X346000Y113000D01*
Y125000D01*
X347000Y126000D01*
X370000D01*
X371000Y125000D01*
D02*
G37*
G36*
X366000Y64000D02*
X371000Y59000D01*
Y29000D01*
X370000Y28000D01*
X347000D01*
X346000Y29000D01*
Y41000D01*
X347000Y42000D01*
X358000D01*
X359000Y43000D01*
Y68250D01*
X366000D01*
Y64000D01*
D02*
G37*
G36*
X647000Y35000D02*
X664000D01*
Y28000D01*
X661000Y25000D01*
X626000D01*
X625000Y26000D01*
Y42000D01*
X626000Y43000D01*
X639000D01*
X647000Y35000D01*
D02*
G37*
G36*
X425000Y133000D02*
X426000Y132000D01*
X426000Y100000D01*
X424490Y98490D01*
X419510D01*
Y91510D01*
X418250Y90250D01*
X396250D01*
X395000Y89000D01*
Y85750D01*
X388000D01*
Y96000D01*
X389000Y97000D01*
X395000D01*
X396000Y98000D01*
Y132000D01*
X397000Y133000D01*
X425000Y133000D01*
D02*
G37*
G36*
X427500Y80500D02*
X388000Y80500D01*
Y83760D01*
X396990D01*
Y86750D01*
X427500Y86750D01*
Y80500D01*
D02*
G37*
G36*
X419510Y73179D02*
Y68510D01*
X427510D01*
Y60991D01*
X421160D01*
Y62490D01*
X420676Y63656D01*
X420166Y64166D01*
X419000Y64650D01*
X396990Y64650D01*
Y70240D01*
X388010D01*
Y73240D01*
X419448D01*
X419510Y73179D01*
D02*
G37*
G36*
X395000Y64000D02*
X396000Y63000D01*
X419000Y63000D01*
X419510Y62490D01*
Y59490D01*
X421000Y58000D01*
X425000D01*
X426000Y57000D01*
X426000Y22000D01*
X425000Y21000D01*
X397000Y21000D01*
X396000Y22000D01*
Y55000D01*
X395000Y56000D01*
X389000D01*
X388000Y57000D01*
Y68250D01*
X395000D01*
X395000Y64000D01*
D02*
G37*
D13*
X175828Y140000D02*
G03*
X172029Y138845I0J-6828D01*
G01*
X171189Y138181D02*
G03*
X172029Y138845I-2407J3912D01*
G01*
X168781Y137500D02*
G03*
X171189Y138181I0J4593D01*
G01*
X164250Y137500D02*
X168781D01*
X177000Y140000D02*
X178000D01*
X175828D02*
X177000D01*
Y128000D02*
Y140000D01*
X217000Y104000D02*
Y115000D01*
X218000Y116000D01*
X144000Y15000D02*
X164400D01*
X144000D02*
Y22000D01*
Y8000D02*
Y15000D01*
Y8000D02*
Y15000D01*
Y22000D01*
X152000Y8000D02*
Y15000D01*
Y22000D01*
X160000Y8000D02*
Y15000D01*
Y22000D01*
X65000Y185000D02*
X85400D01*
X65000D02*
Y192000D01*
Y178000D02*
Y185000D01*
Y178000D02*
Y185000D01*
Y192000D01*
X73000Y178000D02*
Y185000D01*
Y192000D01*
X81000Y178000D02*
Y185000D01*
Y192000D01*
X21000Y135000D02*
Y142000D01*
Y128000D02*
Y135000D01*
X13000D02*
Y142000D01*
Y128000D02*
Y135000D01*
X5000D02*
Y142000D01*
Y128000D02*
Y135000D01*
Y128000D02*
Y135000D01*
Y142000D01*
Y135000D02*
X25400D01*
X554000Y115000D02*
X556500Y112500D01*
Y100250D02*
Y112500D01*
X554000Y91000D02*
X556476Y93476D01*
X556500Y95087D02*
Y100250D01*
X556476Y95063D02*
X556500Y95087D01*
X556476Y93476D02*
Y95063D01*
X551500Y100250D02*
Y109500D01*
X549000Y112000D02*
X551500Y109500D01*
X145022Y130128D02*
X149953Y135059D01*
X144981Y140059D02*
X149967Y135073D01*
X149953Y135059D02*
X154953Y130059D01*
X150000Y135000D02*
X155000Y140000D01*
X549054Y86008D02*
X554043Y81019D01*
X549043Y86019D02*
X549054Y86008D01*
X549065Y86019D01*
X544065Y81019D02*
X549054Y86008D01*
X544000Y91000D02*
X549000Y86000D01*
X554000Y91000D01*
X544065Y81019D02*
X544065D01*
X554043Y81019D02*
Y81019D01*
X554000Y91000D02*
X554000D01*
X544000D02*
Y91000D01*
X540000Y107000D02*
X541500Y105500D01*
Y100250D02*
Y105500D01*
X582000Y59000D02*
X582000Y59000D01*
X572000Y92000D02*
Y121000D01*
Y92000D02*
X572418Y91582D01*
X565000Y128000D02*
X572000Y121000D01*
X532000Y128000D02*
X543000Y117000D01*
X546500Y100250D02*
Y108500D01*
X543000Y112000D02*
Y115000D01*
Y112000D02*
X546500Y108500D01*
X549000Y112000D02*
Y128000D01*
X555000D01*
X543000D02*
X549000D01*
X543000Y115000D02*
Y117000D01*
X532000Y115000D02*
X534750Y112250D01*
Y93500D02*
Y112250D01*
X563250Y106250D02*
X565000Y108000D01*
Y115000D01*
X563250Y93500D02*
Y106250D01*
X420000Y77000D02*
X424000Y73000D01*
X391500Y77000D02*
X420000D01*
X421825Y81500D02*
Y81825D01*
X424000Y84000D01*
X362500Y77000D02*
X363000D01*
X352000D02*
X362500D01*
Y72000D02*
X369750D01*
X371250Y73500D01*
Y76519D01*
X176000Y47000D02*
Y59000D01*
X176000Y59000D02*
X176000Y59000D01*
X124250Y59000D02*
X176000D01*
X186000Y59000D02*
X186325Y59325D01*
X201425D01*
X201751Y59651D01*
X68000Y115250D02*
Y130175D01*
Y115250D02*
X124250Y59000D01*
X252000Y106000D02*
Y113985D01*
X251500Y105500D02*
X252000Y106000D01*
X237485Y128500D02*
X252000Y113985D01*
X207500Y128500D02*
X237485D01*
X207000Y128000D02*
X207500Y128500D01*
X195751Y72351D02*
X201751D01*
X195500Y72100D02*
X195751Y72351D01*
X195500Y70250D02*
Y72100D01*
X192251D02*
X195500D01*
X196675Y115675D02*
X197000Y116000D01*
X196675Y99646D02*
Y115675D01*
X195500Y98471D02*
X196675Y99646D01*
X190669Y93640D02*
X195500Y98471D01*
X190669Y73682D02*
Y93640D01*
Y73682D02*
X192251Y72100D01*
X248750Y177250D02*
X249000Y177000D01*
X229750Y177250D02*
X248750D01*
X229500Y177000D02*
X229750Y177250D01*
X217000Y104000D02*
X222000D01*
X197000Y116000D02*
Y128000D01*
X196970Y128031D02*
X197000Y128000D01*
X187031Y128031D02*
X196970D01*
X187000Y128000D02*
X187031Y128031D01*
X152501Y108499D02*
Y120268D01*
Y108499D02*
X153000Y108000D01*
X152750Y108250D02*
X153000Y108000D01*
X79500Y178360D02*
X85900Y184760D01*
X79500Y163000D02*
Y178360D01*
X89500Y150675D02*
Y163000D01*
X89325Y150500D02*
X89500Y150675D01*
X89325Y150825D02*
X89500Y151000D01*
X89325Y150500D02*
Y150825D01*
X123000Y130175D02*
X125322Y132498D01*
X135268D01*
X123000Y139825D02*
X125326Y137499D01*
X135268D01*
X112000Y139825D02*
X123000D01*
X101000Y130175D02*
X112000D01*
X90000Y139825D02*
X101000D01*
X79000Y130175D02*
X90000D01*
X89325Y150500D02*
X90000Y149825D01*
Y139825D02*
Y149825D01*
X79000Y149825D02*
X79675Y150500D01*
X79000Y139825D02*
Y149825D01*
X68000Y139825D02*
X79000D01*
X68000Y139825D02*
X68000Y139825D01*
X57000Y139825D02*
X68000D01*
X25400Y135000D02*
X30225Y130175D01*
X57000D01*
D16*
X695000Y155000D02*
D03*
D17*
X674500Y128000D02*
D03*
Y182000D02*
D03*
D19*
X142500Y149250D02*
D03*
X147500D02*
D03*
X152500D02*
D03*
X157500D02*
D03*
Y120750D02*
D03*
X152500D02*
D03*
X147500D02*
D03*
X142500D02*
D03*
D20*
X164250Y142500D02*
D03*
Y137500D02*
D03*
Y132500D02*
D03*
Y127500D02*
D03*
X135750D02*
D03*
Y132500D02*
D03*
Y137500D02*
D03*
Y142500D02*
D03*
D21*
X563250Y78500D02*
D03*
Y83500D02*
D03*
Y88500D02*
D03*
Y93500D02*
D03*
X534750D02*
D03*
Y88500D02*
D03*
Y83500D02*
D03*
Y78500D02*
D03*
D22*
X556500Y100250D02*
D03*
X551500D02*
D03*
X546500D02*
D03*
X541500D02*
D03*
Y71750D02*
D03*
X546500D02*
D03*
X551500D02*
D03*
X556500D02*
D03*
D23*
X362500Y87000D02*
D03*
Y82000D02*
D03*
Y77000D02*
D03*
Y72000D02*
D03*
Y67000D02*
D03*
X391500D02*
D03*
Y72000D02*
D03*
Y77000D02*
D03*
Y82000D02*
D03*
Y87000D02*
D03*
D24*
X201751Y85051D02*
D03*
Y72351D02*
D03*
Y59651D02*
D03*
Y46951D02*
D03*
X256251Y85051D02*
D03*
Y72351D02*
D03*
Y59651D02*
D03*
Y46951D02*
D03*
D25*
X263000Y177000D02*
D03*
X249000D02*
D03*
X367000Y35000D02*
D03*
X381000D02*
D03*
X381000Y119000D02*
D03*
X367000D02*
D03*
D26*
X424000Y73000D02*
D03*
Y63000D02*
D03*
Y94000D02*
D03*
Y84000D02*
D03*
X413000Y60000D02*
D03*
Y70000D02*
D03*
Y84000D02*
D03*
Y94000D02*
D03*
X156000Y172000D02*
D03*
Y162000D02*
D03*
X144000Y172000D02*
D03*
Y162000D02*
D03*
X153000Y98000D02*
D03*
Y108000D02*
D03*
X123000Y130000D02*
D03*
Y140000D02*
D03*
X68000Y130000D02*
D03*
Y140000D02*
D03*
X112000D02*
D03*
Y130000D02*
D03*
X57000Y140000D02*
D03*
Y130000D02*
D03*
X277000Y81000D02*
D03*
Y71000D02*
D03*
X402000Y70000D02*
D03*
Y60000D02*
D03*
Y84000D02*
D03*
Y94000D02*
D03*
X101000Y140000D02*
D03*
Y130000D02*
D03*
D27*
X187000Y140000D02*
D03*
X177000D02*
D03*
X207000Y104000D02*
D03*
X217000D02*
D03*
X555000Y128000D02*
D03*
X565000D02*
D03*
X207000D02*
D03*
X197000D02*
D03*
X177000D02*
D03*
X187000D02*
D03*
X186000Y59000D02*
D03*
X176000D02*
D03*
X186000Y47000D02*
D03*
X176000D02*
D03*
X533000Y128000D02*
D03*
X543000D02*
D03*
X533000Y115000D02*
D03*
X543000D02*
D03*
X79500Y163000D02*
D03*
X89500D02*
D03*
Y151000D02*
D03*
X79500D02*
D03*
X378000Y49000D02*
D03*
X368000D02*
D03*
Y105000D02*
D03*
X378000D02*
D03*
X565000Y115000D02*
D03*
X555000D02*
D03*
X176000Y112000D02*
D03*
X166000D02*
D03*
X134000Y158000D02*
D03*
X124000D02*
D03*
Y112000D02*
D03*
X134000D02*
D03*
X166000Y158000D02*
D03*
X176000D02*
D03*
X216000Y31000D02*
D03*
X206000D02*
D03*
X352000Y77000D02*
D03*
X342000D02*
D03*
X218000Y116000D02*
D03*
X228000D02*
D03*
X197000D02*
D03*
X207000D02*
D03*
D28*
X264000Y134500D02*
D03*
D29*
X276500Y105500D02*
D03*
X251500D02*
D03*
D30*
X542250Y49000D02*
D03*
X555750D02*
D03*
D31*
X656750Y52500D02*
D03*
Y59000D02*
D03*
Y33000D02*
D03*
Y39500D02*
D03*
Y46000D02*
D03*
D32*
X683500Y34000D02*
D03*
Y58000D02*
D03*
D33*
X659000Y14000D02*
D03*
Y78000D02*
D03*
D34*
X601000Y59250D02*
D03*
Y72750D02*
D03*
D35*
X631000Y34000D02*
D03*
X601000D02*
D03*
D36*
X229500Y177000D02*
D03*
X208500D02*
D03*
D37*
X173100Y83000D02*
D03*
X168900D02*
D03*
Y187000D02*
D03*
X173100D02*
D03*
X126900Y83000D02*
D03*
X131100D02*
D03*
Y187000D02*
D03*
X126900D02*
D03*
Y98000D02*
D03*
X131100D02*
D03*
X168900Y172000D02*
D03*
X173100D02*
D03*
X173100Y98000D02*
D03*
X168900D02*
D03*
X131100Y172000D02*
D03*
X126900D02*
D03*
D38*
X582000Y102000D02*
D03*
Y88000D02*
D03*
X516000Y79000D02*
D03*
Y93000D02*
D03*
X582000Y73000D02*
D03*
Y59000D02*
D03*
D39*
X410750Y35000D02*
D03*
X445250D02*
D03*
X445250Y119000D02*
D03*
X410750D02*
D03*
D40*
X90000Y130500D02*
D03*
Y139500D02*
D03*
X79000D02*
D03*
Y130500D02*
D03*
D73*
X231521Y155000D02*
G03*
X213561Y147561I0J-25400D01*
G01*
X200343Y140000D02*
G03*
X210000Y144000I0J13657D01*
G01*
X694000Y155000D02*
X695000D01*
X693000D02*
X694000D01*
X692000D02*
X693000D01*
X691000D02*
X692000D01*
X231521D02*
X691000D01*
X210000Y144000D02*
X213561Y147561D01*
X187000Y140000D02*
X200343D01*
D74*
X150000Y135000D02*
D03*
X549000Y86000D02*
D03*
D75*
X377000Y77000D02*
D03*
D76*
X85400Y185000D02*
D03*
X25400Y135000D02*
D03*
X161400Y15740D02*
D03*
D77*
X151000Y172000D02*
X156000D01*
X151000Y172000D02*
X151000Y172000D01*
X245600Y59400D02*
X256000D01*
X256251Y59651D01*
X206675Y103675D02*
X207000Y104000D01*
X206675Y98325D02*
Y103675D01*
Y98325D02*
X245600Y59400D01*
X263500Y177000D02*
X272000D01*
X263250Y177250D02*
X263500Y177000D01*
X263000D02*
X263250Y177250D01*
X207000Y104000D02*
Y116000D01*
X207000Y116000D02*
X207000Y116000D01*
X135330Y120330D02*
Y127496D01*
D78*
X683500Y13000D02*
D03*
Y79000D02*
D03*
D79*
X643000Y7000D02*
D03*
X144000Y15000D02*
D03*
Y8000D02*
D03*
Y22000D02*
D03*
D03*
Y8000D02*
D03*
Y15000D02*
D03*
X152000Y22000D02*
D03*
Y8000D02*
D03*
Y15000D02*
D03*
X160000Y22000D02*
D03*
Y8000D02*
D03*
Y15000D02*
D03*
X65000Y185000D02*
D03*
Y178000D02*
D03*
Y192000D02*
D03*
D03*
Y178000D02*
D03*
Y185000D02*
D03*
X73000Y192000D02*
D03*
Y178000D02*
D03*
Y185000D02*
D03*
X81000Y192000D02*
D03*
Y178000D02*
D03*
Y185000D02*
D03*
X21000Y135000D02*
D03*
Y128000D02*
D03*
Y142000D02*
D03*
X13000Y135000D02*
D03*
Y128000D02*
D03*
Y142000D02*
D03*
X5000Y135000D02*
D03*
Y128000D02*
D03*
Y142000D02*
D03*
D03*
Y128000D02*
D03*
Y135000D02*
D03*
X145022Y130128D02*
D03*
X150000Y135000D02*
D03*
X154953Y130059D02*
D03*
X144981Y140059D02*
D03*
X155000Y140000D02*
D03*
X638385Y163259D02*
D03*
X623885D02*
D03*
X609385D02*
D03*
X594885D02*
D03*
X580385D02*
D03*
X565885D02*
D03*
X551385D02*
D03*
X536885D02*
D03*
X522385D02*
D03*
X507885D02*
D03*
X493385D02*
D03*
X478885D02*
D03*
X464385D02*
D03*
X449885D02*
D03*
X435385D02*
D03*
X420885D02*
D03*
X406385D02*
D03*
X391885D02*
D03*
X377385D02*
D03*
X362885D02*
D03*
X348385D02*
D03*
X333885D02*
D03*
X319385D02*
D03*
X304885D02*
D03*
X290385D02*
D03*
X275885D02*
D03*
X261385D02*
D03*
X246885D02*
D03*
X232385D02*
D03*
X218158Y160458D02*
D03*
X206355Y152035D02*
D03*
X192356Y148259D02*
D03*
X213224Y135924D02*
D03*
X224420Y145138D02*
D03*
X238832Y146741D02*
D03*
X253332D02*
D03*
X267831D02*
D03*
X282332D02*
D03*
X296831D02*
D03*
X311332D02*
D03*
X325831D02*
D03*
X340331D02*
D03*
X354831D02*
D03*
X369331D02*
D03*
X383831D02*
D03*
X398331D02*
D03*
X412831D02*
D03*
X427331D02*
D03*
X441831D02*
D03*
X456331D02*
D03*
X470831D02*
D03*
X485331D02*
D03*
X499831D02*
D03*
X514331D02*
D03*
X528831D02*
D03*
X543331D02*
D03*
X557831D02*
D03*
X572331D02*
D03*
X586831D02*
D03*
X601331D02*
D03*
X615831D02*
D03*
X630331D02*
D03*
X644831D02*
D03*
X623999Y195000D02*
D03*
X633999D02*
D03*
X603999D02*
D03*
X613999D02*
D03*
X693999Y115000D02*
D03*
X683999D02*
D03*
X673999D02*
D03*
X653999D02*
D03*
X663999D02*
D03*
X633999D02*
D03*
X643999D02*
D03*
Y195000D02*
D03*
X663999D02*
D03*
X653999D02*
D03*
X656000Y164000D02*
D03*
X666000D02*
D03*
X677000D02*
D03*
X694000Y171000D02*
D03*
X589999Y193000D02*
D03*
X673999Y195000D02*
D03*
X683999D02*
D03*
X693999D02*
D03*
X151000Y172000D02*
D03*
X549000Y86000D02*
D03*
X544065Y81019D02*
D03*
X554000Y91000D02*
D03*
X554043Y81019D02*
D03*
X544000Y91000D02*
D03*
X587000Y109000D02*
D03*
X578000D02*
D03*
X525000Y75000D02*
D03*
Y82000D02*
D03*
X582000Y53000D02*
D03*
X574000Y59000D02*
D03*
X571000Y77000D02*
D03*
X540000Y107000D02*
D03*
X272000Y177000D02*
D03*
X222000Y104000D02*
D03*
X235000Y116000D02*
D03*
X277000Y92000D02*
D03*
X193000Y7000D02*
D03*
X666000Y146000D02*
D03*
X452000Y57000D02*
D03*
X439000D02*
D03*
X452000Y96000D02*
D03*
X439000D02*
D03*
X357000Y116000D02*
D03*
Y123000D02*
D03*
X350000Y116000D02*
D03*
Y123000D02*
D03*
Y31000D02*
D03*
X357000D02*
D03*
X350000Y38000D02*
D03*
X357000D02*
D03*
X599000Y85000D02*
D03*
X506000Y97000D02*
D03*
X499000D02*
D03*
X506000Y90000D02*
D03*
X499000D02*
D03*
X423000Y51000D02*
D03*
X415000D02*
D03*
X407000D02*
D03*
X400000D02*
D03*
X423000Y101000D02*
D03*
X415000D02*
D03*
X407000D02*
D03*
X400000D02*
D03*
X599000Y92000D02*
D03*
X592000Y85000D02*
D03*
Y92000D02*
D03*
X185000Y170000D02*
D03*
X115000Y80000D02*
D03*
X135000Y190000D02*
D03*
X105000Y90000D02*
D03*
X95000Y100000D02*
D03*
X85000Y110000D02*
D03*
X95000D02*
D03*
X105000D02*
D03*
X80000Y93000D02*
D03*
X105000Y100000D02*
D03*
X115000Y110000D02*
D03*
X694000Y86000D02*
D03*
Y96000D02*
D03*
Y106000D02*
D03*
X203000Y7000D02*
D03*
X213000D02*
D03*
X223000D02*
D03*
X233000D02*
D03*
X243000D02*
D03*
X253000D02*
D03*
X303000D02*
D03*
X293000D02*
D03*
X283000D02*
D03*
X273000D02*
D03*
X263000D02*
D03*
X353000D02*
D03*
X363000D02*
D03*
X343000D02*
D03*
X333000D02*
D03*
X323000D02*
D03*
X313000D02*
D03*
X433000D02*
D03*
X443000D02*
D03*
X453000D02*
D03*
X463000D02*
D03*
X473000D02*
D03*
X423000D02*
D03*
X413000D02*
D03*
X403000D02*
D03*
X393000D02*
D03*
X383000D02*
D03*
X373000D02*
D03*
X543000D02*
D03*
X553000D02*
D03*
X563000D02*
D03*
X573000D02*
D03*
X583000D02*
D03*
X533000D02*
D03*
X523000D02*
D03*
X513000D02*
D03*
X503000D02*
D03*
X493000D02*
D03*
X483000D02*
D03*
X593000D02*
D03*
X603000D02*
D03*
X633000D02*
D03*
X623000D02*
D03*
X613000D02*
D03*
X581000Y193000D02*
D03*
X471000D02*
D03*
X481000D02*
D03*
X491000D02*
D03*
X501000D02*
D03*
X511000D02*
D03*
X521000D02*
D03*
X571000D02*
D03*
X561000D02*
D03*
X551000D02*
D03*
X541000D02*
D03*
X531000D02*
D03*
X361000D02*
D03*
X371000D02*
D03*
X381000D02*
D03*
X391000D02*
D03*
X401000D02*
D03*
X411000D02*
D03*
X461000D02*
D03*
X451000D02*
D03*
X441000D02*
D03*
X431000D02*
D03*
X421000D02*
D03*
X301000D02*
D03*
X311000D02*
D03*
X321000D02*
D03*
X331000D02*
D03*
X341000D02*
D03*
X351000D02*
D03*
X251000D02*
D03*
X261000D02*
D03*
X271000D02*
D03*
X281000D02*
D03*
X291000D02*
D03*
X241000D02*
D03*
X231000D02*
D03*
X221000D02*
D03*
X211000D02*
D03*
X201000D02*
D03*
X115000Y160000D02*
D03*
X184000Y30000D02*
D03*
X165000Y81000D02*
D03*
X135000D02*
D03*
X143000D02*
D03*
X150000D02*
D03*
X158000D02*
D03*
X165000Y190000D02*
D03*
X143000D02*
D03*
X150000D02*
D03*
X158000D02*
D03*
X694000Y139000D02*
D03*
X677000Y146000D02*
D03*
X656000D02*
D03*
X371000Y77000D02*
D03*
X383000D02*
D03*
X184000Y100000D02*
D03*
Y90000D02*
D03*
X290000Y109000D02*
D03*
X181000Y193000D02*
D03*
X191000D02*
D03*
X287000Y82000D02*
D03*
X195000Y28000D02*
D03*
X205000Y18000D02*
D03*
X223000D02*
D03*
X232000Y28000D02*
D03*
X87000Y87000D02*
D03*
X94000Y79000D02*
D03*
X101000Y72000D02*
D03*
X108000Y65000D02*
D03*
X115000Y58000D02*
D03*
X122000Y51000D02*
D03*
X129000Y44000D02*
D03*
X136000Y37000D02*
D03*
X277000Y55000D02*
D03*
X287000Y64000D02*
D03*
X115000Y90000D02*
D03*
X135000Y120000D02*
D03*
X174000Y30000D02*
D03*
X164000D02*
D03*
X154000D02*
D03*
X115000Y100000D02*
D03*
X144000Y30000D02*
D03*
X115000Y170000D02*
D03*
Y190000D02*
D03*
X184000Y110000D02*
D03*
X115000Y180000D02*
D03*
X185000Y160000D02*
D03*
Y180000D02*
D03*
D80*
X382000Y68000D02*
D03*
X372000D02*
D03*
X382000Y86000D02*
D03*
X372000D02*
D03*
X377000Y77000D02*
D03*
M02*
