M48
;Layer_Color=9474304
;FILE_FORMAT=2:5
INCH,LZ
;TYPE=PLATED
T01F00S00C0.01181
%
T01
X0037008Y0031102
X0039764Y0028346
X004252Y0025591
X0045276Y0022835
X0048031Y0020079
X0045276Y0031496
Y0035433
X0041339
X0034252Y0034252
X005315Y003189
X0056299
X0059055
X0062205
X0064961
X0072441Y0035433
Y0011811
X0068504
X0064567
X006063
X0059842Y0008661
Y0005906
Y000315
X0056693
Y0005906
Y0008661
Y0011811
X0053543Y0014567
X0050787Y0017323
X0062992Y0008661
Y0005906
Y000315
X0075984Y0002756
X0079921
X0083858
X0087795
X0091732
X0095669
X0099606
X0103543
X010748
X0111417
X0115354
X0119291
X0123228
X0127165
X0131102
X0135039
X0138976
X0142913
X014685
X0150787
X0154724
X0158661
X0162598
X0166535
X0170472
X0174409
X0178347
X0182283
X0186221
X0190157
X0194095
X0198031
X0201969
X0199213Y0035433
X0196457
X0177953Y0022441
X0172835
X0166535Y0020079
X0163386
X0160236
X015748
X0150394Y0026772
X0146457
X0146063Y0030315
X0148425
X0150787
X0150394Y0033858
X0146457
X0140551Y0014961
X0137795
Y0012205
X0140551
X0112992Y0025197
Y0032283
X0109055Y003622
Y0021654
X0091339Y0011024
X0087795Y0007087
X0080709
X0076772Y0011024
X0205906Y0002756
X0209842
X0213779
X0217717
X0221654
X022559
X0229528
X0233465
X0237402
X0241339
X0245276
X0249213
X025315
X0229134Y0020866
X0225984Y0023228
X0224803Y0030315
X0218127Y0031897
X0214199Y0031897
X0216142Y0033858
X021811Y0035827
X0214173Y0035827
X0206693Y0032283
Y0029528
X0233071Y0033465
X0235827
Y003622
X0233071
X0273228Y0033858
Y0037795
Y0041732
X0273228Y0045276
X0269291
X0265354
X0261417
X025748
X0253543
X0249606
X0248162Y0057772
X0242453
X0236745
X0231036
X0225327
X0219619
X021391
X0208201
X0205663Y0064275
X0211372
X0217081
X0222789
X0228498
X0234207
X0239915
X0245624
X0251333
X0258268Y0064567
X0262205
X0266535
Y005748
X0262205
X0258268
X0253871Y0057772
X0253543Y0076771
X0249606
X0245669
X0241732
X0237795
X0232283Y0075984
X022874Y0075984
X0224803
X0220866
X0216929
X0212992
X0209055
X0212598Y0042126
X0227559Y0042913
X0231102
X0273228Y0054724
Y0067323
X0273228Y0076771
X0269291
X0265354
X0261417
X025748
X0205118Y0075984
X0201181
X0197244
X0193307
X018937
X0185433
X0181496
X0177559
X0173622
X0169685
X0165748
X0161811
X0157874
X0153937
X015
X0146063
X0142126
X0138189
X0134252
X0130315
X0126378
X0122441
X0118504
X0114567
X011063
X0106693
X0102756
X0098819
X0094882
X0090945
X0087008
X0083071
X0079134
X0075197
X007126
X0072835Y0070866
Y0066929
Y0062992
X0075731Y005837
X0081242Y0059856
X0085889Y0063172
X009149Y0064275
X0097199
X0102908
X0108616
X0114325
X0120034
X0125742
X0131451
X013716
X0142868
X0148577
X0154286
X0159994
X0165703
X0171412
X017712
X0182829
X0188538
X0194246
X0199955
X0202493Y0057772
X0196784
X0191075
X0185367
X0179658
X0173949
X0168241
X0162532
X0156823
X0151115
X0145406
X0139697
X0133989
X012828
X0122571
X0116863
X0111154
X0105446
X0099737
X0094028
X0088354Y0057141
X0083947Y0053513
X0087402Y0040945
X009252Y0045669
X0072441Y0043307
Y003937
X0061005Y0051204
X0059055Y005315
X0057095Y0051231
X0057079Y0055141
X0061024Y0055118
X0059449Y0067716
X0059055Y0074803
X0056299
X005315
X0062205
X0064961
X005315Y0047244
X0114173Y0042913
X0137795Y0045669
X0140551
Y0048425
X0137795
X015748Y0039764
X0160236
X0163386
X0166535
X0172835Y0037795
X0177953
X0196457Y0038189
X0199213
X0107087Y0069685
X0045276Y0070866
Y0066929
Y0062992
Y0074803
X003189Y007559
Y0072835
Y0070079
X002874
Y0072835
Y007559
X0025591
Y0072835
Y0070079
X0008268Y0055905
Y005315
Y0050394
X0005118
Y005315
Y0055905
X0001969
Y005315
Y0050394
X0033465Y0043307
X0037402
Y003937
X0041339
Y0043307
X0045276
Y003937
X0031496Y0036614
M30
