G04*
G04 #@! TF.GenerationSoftware,Altium Limited,Altium Designer,24.1.0 (36)*
G04*
G04 Layer_Color=8388736*
%FSLAX44Y44*%
%MOMM*%
G71*
G04*
G04 #@! TF.SameCoordinates,419B32F7-A19B-4B02-8D27-CA0E7DC0472F*
G04*
G04*
G04 #@! TF.FilePolarity,Negative*
G04*
G01*
G75*
%ADD28R,2.0000X1.6000*%
%ADD29R,1.3000X1.6000*%
%ADD41R,5.9000X2.4000*%
%ADD42R,0.4818X0.8500*%
%ADD43C,2.3700*%
%ADD44C,1.3700*%
%ADD45R,1.0016X0.7116*%
%ADD46R,5.1016X1.5016*%
%ADD47R,1.7516X1.7516*%
G04:AMPARAMS|DCode=48|XSize=0.3516mm|YSize=0.8016mm|CornerRadius=0.1133mm|HoleSize=0mm|Usage=FLASHONLY|Rotation=0.000|XOffset=0mm|YOffset=0mm|HoleType=Round|Shape=RoundedRectangle|*
%AMROUNDEDRECTD48*
21,1,0.3516,0.5750,0,0,0.0*
21,1,0.1250,0.8016,0,0,0.0*
1,1,0.2266,0.0625,-0.2875*
1,1,0.2266,-0.0625,-0.2875*
1,1,0.2266,-0.0625,0.2875*
1,1,0.2266,0.0625,0.2875*
%
%ADD48ROUNDEDRECTD48*%
G04:AMPARAMS|DCode=49|XSize=0.3516mm|YSize=0.8016mm|CornerRadius=0.1133mm|HoleSize=0mm|Usage=FLASHONLY|Rotation=90.000|XOffset=0mm|YOffset=0mm|HoleType=Round|Shape=RoundedRectangle|*
%AMROUNDEDRECTD49*
21,1,0.3516,0.5750,0,0,90.0*
21,1,0.1250,0.8016,0,0,90.0*
1,1,0.2266,0.2875,0.0625*
1,1,0.2266,0.2875,-0.0625*
1,1,0.2266,-0.2875,-0.0625*
1,1,0.2266,-0.2875,0.0625*
%
%ADD49ROUNDEDRECTD49*%
%ADD50O,0.9516X0.3516*%
%ADD51O,0.3516X0.9516*%
%ADD52R,0.8016X0.3516*%
%ADD53R,1.7516X2.5016*%
%ADD54O,1.5516X0.7016*%
%ADD55R,0.7016X1.1016*%
%ADD56R,0.6016X0.6016*%
%ADD57R,0.6016X0.6016*%
%ADD58R,0.7516X1.7016*%
%ADD59O,1.4516X0.5016*%
%ADD60R,1.9016X2.0016*%
G04:AMPARAMS|DCode=61|XSize=1.7016mm|YSize=1.5016mm|CornerRadius=0.4008mm|HoleSize=0mm|Usage=FLASHONLY|Rotation=270.000|XOffset=0mm|YOffset=0mm|HoleType=Round|Shape=RoundedRectangle|*
%AMROUNDEDRECTD61*
21,1,1.7016,0.7000,0,0,270.0*
21,1,0.9000,1.5016,0,0,270.0*
1,1,0.8016,-0.3500,-0.4500*
1,1,0.8016,-0.3500,0.4500*
1,1,0.8016,0.3500,0.4500*
1,1,0.8016,0.3500,-0.4500*
%
%ADD61ROUNDEDRECTD61*%
%ADD62R,1.1016X1.0016*%
%ADD63R,1.1016X1.7016*%
%ADD64R,1.3016X1.3016*%
%ADD65R,0.2600X1.0400*%
%ADD66R,1.1016X0.7016*%
%ADD67R,1.7516X2.5016*%
%ADD68R,0.6016X0.5016*%
%ADD69R,5.1816X2.3876*%
%ADD70O,1.7016X1.0016*%
%ADD71C,0.6532*%
%ADD72C,0.7016*%
D28*
X264000Y134500D02*
D03*
D29*
X276500Y105500D02*
D03*
X251500D02*
D03*
D41*
X671500Y155000D02*
D03*
D42*
X683341Y153000D02*
D03*
D43*
X231521Y155000D02*
G03*
X213561Y147561I0J-25400D01*
G01*
X694000Y155000D02*
X695000D01*
X693000D02*
X694000D01*
X692000D02*
X693000D01*
X691000D02*
X692000D01*
X231521D02*
X691000D01*
X210000Y144000D02*
X213561Y147561D01*
D44*
X200343Y140000D02*
G03*
X210000Y144000I0J13657D01*
G01*
X187000Y140000D02*
X200343D01*
D45*
X695000Y155000D02*
D03*
D46*
X674500Y128000D02*
D03*
Y182000D02*
D03*
D47*
X150000Y135000D02*
D03*
X549000Y86000D02*
D03*
D48*
X142500Y149250D02*
D03*
X147500D02*
D03*
X152500D02*
D03*
X157500D02*
D03*
Y120750D02*
D03*
X152500D02*
D03*
X147500D02*
D03*
X142500D02*
D03*
D49*
X164250Y142500D02*
D03*
Y137500D02*
D03*
Y132500D02*
D03*
Y127500D02*
D03*
X135750D02*
D03*
Y132500D02*
D03*
Y137500D02*
D03*
Y142500D02*
D03*
D50*
X563250Y78500D02*
D03*
Y83500D02*
D03*
Y88500D02*
D03*
Y93500D02*
D03*
X534750D02*
D03*
Y88500D02*
D03*
Y83500D02*
D03*
Y78500D02*
D03*
D51*
X556500Y100250D02*
D03*
X551500D02*
D03*
X546500D02*
D03*
X541500D02*
D03*
Y71750D02*
D03*
X546500D02*
D03*
X551500D02*
D03*
X556500D02*
D03*
D52*
X362500Y87000D02*
D03*
Y82000D02*
D03*
Y77000D02*
D03*
Y72000D02*
D03*
Y67000D02*
D03*
X391500D02*
D03*
Y72000D02*
D03*
Y77000D02*
D03*
Y82000D02*
D03*
Y87000D02*
D03*
D53*
X377000Y77000D02*
D03*
D54*
X201751Y85051D02*
D03*
Y72351D02*
D03*
Y59651D02*
D03*
Y46951D02*
D03*
X256251Y85051D02*
D03*
Y72351D02*
D03*
Y59651D02*
D03*
Y46951D02*
D03*
D55*
X263000Y177000D02*
D03*
X249000D02*
D03*
X367000Y35000D02*
D03*
X381000D02*
D03*
X381000Y119000D02*
D03*
X367000D02*
D03*
D56*
X424000Y73000D02*
D03*
Y63000D02*
D03*
Y94000D02*
D03*
Y84000D02*
D03*
X413000Y60000D02*
D03*
Y70000D02*
D03*
Y84000D02*
D03*
Y94000D02*
D03*
X156000Y172000D02*
D03*
Y162000D02*
D03*
X144000Y172000D02*
D03*
Y162000D02*
D03*
X153000Y98000D02*
D03*
Y108000D02*
D03*
X123000Y130000D02*
D03*
Y140000D02*
D03*
X68000Y130000D02*
D03*
Y140000D02*
D03*
X112000D02*
D03*
Y130000D02*
D03*
X57000Y140000D02*
D03*
Y130000D02*
D03*
X277000Y81000D02*
D03*
Y71000D02*
D03*
X402000Y70000D02*
D03*
Y60000D02*
D03*
Y84000D02*
D03*
Y94000D02*
D03*
X101000Y140000D02*
D03*
Y130000D02*
D03*
D57*
X187000Y140000D02*
D03*
X177000D02*
D03*
X207000Y104000D02*
D03*
X217000D02*
D03*
X555000Y128000D02*
D03*
X565000D02*
D03*
X207000D02*
D03*
X197000D02*
D03*
X177000D02*
D03*
X187000D02*
D03*
X186000Y59000D02*
D03*
X176000D02*
D03*
X186000Y47000D02*
D03*
X176000D02*
D03*
X533000Y128000D02*
D03*
X543000D02*
D03*
X533000Y115000D02*
D03*
X543000D02*
D03*
X79500Y163000D02*
D03*
X89500D02*
D03*
Y151000D02*
D03*
X79500D02*
D03*
X378000Y49000D02*
D03*
X368000D02*
D03*
Y105000D02*
D03*
X378000D02*
D03*
X565000Y115000D02*
D03*
X555000D02*
D03*
X176000Y112000D02*
D03*
X166000D02*
D03*
X134000Y158000D02*
D03*
X124000D02*
D03*
Y112000D02*
D03*
X134000D02*
D03*
X166000Y158000D02*
D03*
X176000D02*
D03*
X216000Y31000D02*
D03*
X206000D02*
D03*
X352000Y77000D02*
D03*
X342000D02*
D03*
X218000Y116000D02*
D03*
X228000D02*
D03*
X197000D02*
D03*
X207000D02*
D03*
D58*
X542250Y49000D02*
D03*
X555750D02*
D03*
D59*
X656750Y52500D02*
D03*
Y59000D02*
D03*
Y33000D02*
D03*
Y39500D02*
D03*
Y46000D02*
D03*
D60*
X683500Y34000D02*
D03*
Y58000D02*
D03*
D61*
X659000Y14000D02*
D03*
Y78000D02*
D03*
D62*
X601000Y59250D02*
D03*
Y72750D02*
D03*
D63*
X631000Y34000D02*
D03*
X601000D02*
D03*
D64*
X229500Y177000D02*
D03*
X208500D02*
D03*
D65*
X173100Y83000D02*
D03*
X168900D02*
D03*
Y187000D02*
D03*
X173100D02*
D03*
X126900Y83000D02*
D03*
X131100D02*
D03*
Y187000D02*
D03*
X126900D02*
D03*
Y98000D02*
D03*
X131100D02*
D03*
X168900Y172000D02*
D03*
X173100D02*
D03*
X173100Y98000D02*
D03*
X168900D02*
D03*
X131100Y172000D02*
D03*
X126900D02*
D03*
D66*
X582000Y102000D02*
D03*
Y88000D02*
D03*
X516000Y79000D02*
D03*
Y93000D02*
D03*
X582000Y73000D02*
D03*
Y59000D02*
D03*
D67*
X410750Y35000D02*
D03*
X445250D02*
D03*
X445250Y119000D02*
D03*
X410750D02*
D03*
D68*
X90000Y130500D02*
D03*
Y139500D02*
D03*
X79000D02*
D03*
Y130500D02*
D03*
D69*
X85400Y185000D02*
D03*
X25400Y135000D02*
D03*
X161400Y15740D02*
D03*
D70*
X683500Y13000D02*
D03*
Y79000D02*
D03*
D71*
X145022Y130128D02*
D03*
X150000Y135000D02*
D03*
X154953Y130059D02*
D03*
X144981Y140059D02*
D03*
X155000Y140000D02*
D03*
X549000Y86000D02*
D03*
X544065Y81019D02*
D03*
X554000Y91000D02*
D03*
X554043Y81019D02*
D03*
X544000Y91000D02*
D03*
D72*
X382000Y68000D02*
D03*
X372000D02*
D03*
X382000Y86000D02*
D03*
X372000D02*
D03*
X377000Y77000D02*
D03*
M02*
