G04*
G04 #@! TF.GenerationSoftware,Altium Limited,Altium Designer,24.1.0 (36)*
G04*
G04 Layer_Physical_Order=3*
G04 Layer_Color=36540*
%FSLAX44Y44*%
%MOMM*%
G71*
G04*
G04 #@! TF.SameCoordinates,419B32F7-A19B-4B02-8D27-CA0E7DC0472F*
G04*
G04*
G04 #@! TF.FilePolarity,Positive*
G04*
G01*
G75*
%ADD13C,0.2000*%
%ADD77C,0.2032*%
%ADD78O,1.6000X0.9000*%
%ADD79C,0.4500*%
%ADD80C,0.6000*%
G36*
X178141Y198592D02*
X177943Y196057D01*
X177006Y194654D01*
X176677Y193000D01*
X177006Y191346D01*
X177943Y189943D01*
X179346Y189006D01*
X181000Y188677D01*
X182654Y189006D01*
X184057Y189943D01*
X184948Y191277D01*
X185387Y191346D01*
X186613D01*
X187052Y191277D01*
X187943Y189943D01*
X189346Y189006D01*
X191000Y188677D01*
X192654Y189006D01*
X194057Y189943D01*
X194948Y191277D01*
X195387Y191346D01*
X196613D01*
X197052Y191277D01*
X197943Y189943D01*
X199346Y189006D01*
X201000Y188677D01*
X202654Y189006D01*
X204057Y189943D01*
X204948Y191277D01*
X205387Y191346D01*
X206613D01*
X207052Y191277D01*
X207943Y189943D01*
X209346Y189006D01*
X211000Y188677D01*
X212654Y189006D01*
X214057Y189943D01*
X214948Y191277D01*
X215387Y191346D01*
X216613D01*
X217052Y191277D01*
X217943Y189943D01*
X219346Y189006D01*
X221000Y188677D01*
X222654Y189006D01*
X224057Y189943D01*
X224948Y191277D01*
X225387Y191346D01*
X226613D01*
X227052Y191277D01*
X227943Y189943D01*
X229346Y189006D01*
X231000Y188677D01*
X232654Y189006D01*
X234057Y189943D01*
X234948Y191277D01*
X235387Y191346D01*
X236613D01*
X237052Y191277D01*
X237943Y189943D01*
X239346Y189006D01*
X241000Y188677D01*
X242654Y189006D01*
X244057Y189943D01*
X244948Y191277D01*
X245387Y191346D01*
X246613D01*
X247052Y191277D01*
X247943Y189943D01*
X249346Y189006D01*
X251000Y188677D01*
X252654Y189006D01*
X254057Y189943D01*
X254948Y191277D01*
X255387Y191346D01*
X256613D01*
X257052Y191277D01*
X257943Y189943D01*
X259346Y189006D01*
X261000Y188677D01*
X262654Y189006D01*
X264057Y189943D01*
X264948Y191277D01*
X265387Y191346D01*
X266613D01*
X267052Y191277D01*
X267943Y189943D01*
X269346Y189006D01*
X271000Y188677D01*
X272654Y189006D01*
X274057Y189943D01*
X274948Y191277D01*
X275387Y191346D01*
X276613D01*
X277052Y191277D01*
X277943Y189943D01*
X279346Y189006D01*
X281000Y188677D01*
X282654Y189006D01*
X284057Y189943D01*
X284948Y191277D01*
X285387Y191346D01*
X286613D01*
X287052Y191277D01*
X287943Y189943D01*
X289346Y189006D01*
X291000Y188677D01*
X292654Y189006D01*
X294057Y189943D01*
X294948Y191277D01*
X295387Y191346D01*
X296613D01*
X297052Y191277D01*
X297943Y189943D01*
X299346Y189006D01*
X301000Y188677D01*
X302654Y189006D01*
X304057Y189943D01*
X304948Y191277D01*
X305387Y191346D01*
X306613D01*
X307052Y191277D01*
X307943Y189943D01*
X309346Y189006D01*
X311000Y188677D01*
X312654Y189006D01*
X314057Y189943D01*
X314948Y191277D01*
X315387Y191346D01*
X316613D01*
X317052Y191277D01*
X317943Y189943D01*
X319346Y189006D01*
X321000Y188677D01*
X322654Y189006D01*
X324057Y189943D01*
X324948Y191277D01*
X325387Y191346D01*
X326613D01*
X327052Y191277D01*
X327943Y189943D01*
X329346Y189006D01*
X331000Y188677D01*
X332654Y189006D01*
X334057Y189943D01*
X334948Y191277D01*
X335387Y191346D01*
X336613D01*
X337052Y191277D01*
X337943Y189943D01*
X339346Y189006D01*
X341000Y188677D01*
X342654Y189006D01*
X344057Y189943D01*
X344948Y191277D01*
X345387Y191346D01*
X346613D01*
X347052Y191277D01*
X347943Y189943D01*
X349346Y189006D01*
X351000Y188677D01*
X352654Y189006D01*
X352878Y189156D01*
X354910Y188069D01*
Y151129D01*
X354831Y151064D01*
X353177Y150735D01*
X351775Y149798D01*
X350838Y148396D01*
X350508Y146741D01*
X350644Y146061D01*
X349287Y144029D01*
X347000D01*
X346223Y143875D01*
X346109Y143826D01*
X344325Y145086D01*
X344325Y145087D01*
X344399Y145459D01*
X344655Y146741D01*
X344325Y148396D01*
X343388Y149798D01*
X341986Y150735D01*
X340331Y151064D01*
X338677Y150735D01*
X337275Y149798D01*
X336338Y148396D01*
X336008Y146741D01*
X336338Y145087D01*
X337275Y143685D01*
X338677Y142747D01*
X340331Y142418D01*
X341986Y142747D01*
X343179Y143544D01*
X344944Y142634D01*
X344971Y142000D01*
X344971Y141719D01*
Y113000D01*
X345126Y112224D01*
X345565Y111565D01*
X346223Y111125D01*
X347000Y110971D01*
X468160D01*
X474000Y105131D01*
Y76519D01*
X387718D01*
X387323Y77000D01*
X386994Y78654D01*
X386057Y80057D01*
X385901Y80161D01*
X385648Y82033D01*
X385785Y82683D01*
X386701Y84053D01*
X387088Y86000D01*
X386701Y87947D01*
X385598Y89598D01*
X383947Y90701D01*
X382000Y91088D01*
X380053Y90701D01*
X378402Y89598D01*
X378222Y89327D01*
X375778D01*
X375598Y89598D01*
X373947Y90701D01*
X372000Y91088D01*
X370053Y90701D01*
X368402Y89598D01*
X367299Y87947D01*
X366912Y86000D01*
X367299Y84053D01*
X368215Y82683D01*
X368353Y82033D01*
X368099Y80161D01*
X367943Y80057D01*
X367006Y78654D01*
X366677Y77000D01*
X366282Y76519D01*
X260500D01*
X260500Y123686D01*
X221898D01*
X219417Y126167D01*
X218423Y126832D01*
X217250Y127065D01*
X160310D01*
X159085Y129097D01*
X159276Y130059D01*
X158947Y131713D01*
X158010Y133116D01*
X156755Y133954D01*
X156643Y134972D01*
X156780Y136090D01*
X158057Y136943D01*
X158994Y138346D01*
X159323Y140000D01*
X158994Y141654D01*
X158057Y143057D01*
X156654Y143994D01*
X155000Y144323D01*
X153346Y143994D01*
X151943Y143057D01*
X151047Y141715D01*
X150721Y141663D01*
X149175Y141707D01*
X148953Y141747D01*
X148038Y143116D01*
X146636Y144053D01*
X144981Y144382D01*
X143652Y144117D01*
X142547Y144649D01*
X141620Y145356D01*
Y146250D01*
X141065D01*
Y157731D01*
X151014Y167680D01*
X152654Y168006D01*
X154057Y168943D01*
X154994Y170346D01*
X155323Y172000D01*
X154994Y173654D01*
X154057Y175057D01*
X152654Y175994D01*
X151000Y176323D01*
X149346Y175994D01*
X147943Y175057D01*
X147006Y173654D01*
X146680Y172014D01*
X135833Y161167D01*
X135168Y160173D01*
X134935Y159000D01*
Y146250D01*
X130500D01*
X130500Y198918D01*
X177920D01*
X178141Y198592D01*
D02*
G37*
G36*
X151863Y174083D02*
X152594Y173594D01*
X153083Y172863D01*
X153254Y172000D01*
X153083Y171137D01*
X152594Y170406D01*
X151863Y169917D01*
X150618Y169670D01*
X150434Y169593D01*
X150238Y169554D01*
X150072Y169443D01*
X149887Y169367D01*
X149746Y169226D01*
X149579Y169114D01*
X139630Y159165D01*
X139190Y158507D01*
X139036Y157731D01*
Y146250D01*
X139190Y145473D01*
X139630Y144815D01*
X139709Y144763D01*
X139746Y144580D01*
X139821Y144466D01*
X139865Y144337D01*
X140039Y144140D01*
X140185Y143921D01*
X140299Y143846D01*
X140389Y143743D01*
X141315Y143036D01*
X140987Y141713D01*
X140658Y140059D01*
X140987Y138405D01*
X141924Y137002D01*
X143188Y136158D01*
X143316Y135041D01*
X143210Y134016D01*
X141965Y133185D01*
X141028Y131782D01*
X140699Y130128D01*
X141028Y128474D01*
X141965Y127071D01*
X143368Y126134D01*
X145022Y125805D01*
X146677Y126134D01*
X148079Y127071D01*
X148906Y128309D01*
X149898Y128408D01*
X151048Y128272D01*
X151896Y127002D01*
X153299Y126065D01*
X154953Y125736D01*
X156607Y126065D01*
X157046Y126358D01*
X158572Y126017D01*
X158738Y125835D01*
X158875Y125630D01*
X159002Y125545D01*
X159105Y125432D01*
X159328Y125327D01*
X159533Y125190D01*
X159683Y125161D01*
X159822Y125096D01*
X160068Y125084D01*
X160310Y125036D01*
X217050D01*
X217631Y124920D01*
X218124Y124591D01*
X220464Y122252D01*
X221122Y121812D01*
X221898Y121657D01*
X232177D01*
X232794Y119625D01*
X231943Y119057D01*
X231006Y117654D01*
X230677Y116000D01*
X231006Y114346D01*
X231943Y112943D01*
X233346Y112006D01*
X235000Y111677D01*
X236654Y112006D01*
X238057Y112943D01*
X238994Y114346D01*
X239323Y116000D01*
X238994Y117654D01*
X238057Y119057D01*
X237206Y119625D01*
X237823Y121657D01*
X258471D01*
X258471Y76519D01*
X258625Y75742D01*
X259065Y75084D01*
X259723Y74644D01*
X260500Y74490D01*
X366282D01*
X366332Y74500D01*
X366785Y74286D01*
X367704Y73639D01*
X368193Y73145D01*
X368353Y71967D01*
X368215Y71318D01*
X367299Y69947D01*
X366912Y68000D01*
X367299Y66053D01*
X368402Y64402D01*
X370053Y63299D01*
X372000Y62912D01*
X373947Y63299D01*
X375598Y64402D01*
X375778Y64672D01*
X378222D01*
X378402Y64402D01*
X380053Y63299D01*
X382000Y62912D01*
X383947Y63299D01*
X385598Y64402D01*
X386701Y66053D01*
X387088Y68000D01*
X386701Y69947D01*
X385785Y71318D01*
X385648Y71967D01*
X385807Y73145D01*
X386296Y73639D01*
X387215Y74286D01*
X387668Y74500D01*
X387718Y74490D01*
X474000D01*
Y43029D01*
X347000D01*
X346223Y42874D01*
X345565Y42435D01*
X345126Y41776D01*
X344971Y41000D01*
Y13003D01*
X343000Y11323D01*
X341346Y10994D01*
X339943Y10057D01*
X339052Y8723D01*
X338613Y8654D01*
X337387D01*
X336948Y8723D01*
X336057Y10057D01*
X334654Y10994D01*
X333000Y11323D01*
X331346Y10994D01*
X329943Y10057D01*
X329052Y8723D01*
X328613Y8654D01*
X327387D01*
X326948Y8723D01*
X326057Y10057D01*
X324654Y10994D01*
X323000Y11323D01*
X321346Y10994D01*
X319943Y10057D01*
X319052Y8723D01*
X318613Y8654D01*
X317387D01*
X316948Y8723D01*
X316057Y10057D01*
X314654Y10994D01*
X313000Y11323D01*
X311346Y10994D01*
X309943Y10057D01*
X309052Y8723D01*
X308613Y8654D01*
X307387D01*
X306948Y8723D01*
X306057Y10057D01*
X304654Y10994D01*
X303000Y11323D01*
X301346Y10994D01*
X299943Y10057D01*
X299052Y8723D01*
X298613Y8654D01*
X297387D01*
X296948Y8723D01*
X296057Y10057D01*
X294654Y10994D01*
X293000Y11323D01*
X291346Y10994D01*
X289943Y10057D01*
X289052Y8723D01*
X288613Y8654D01*
X287387D01*
X286948Y8723D01*
X286057Y10057D01*
X284654Y10994D01*
X283000Y11323D01*
X281346Y10994D01*
X279943Y10057D01*
X279052Y8723D01*
X278613Y8654D01*
X277387D01*
X276948Y8723D01*
X276057Y10057D01*
X274654Y10994D01*
X273000Y11323D01*
X271346Y10994D01*
X269943Y10057D01*
X269052Y8723D01*
X268613Y8654D01*
X267387D01*
X266948Y8723D01*
X266057Y10057D01*
X264654Y10994D01*
X263000Y11323D01*
X261346Y10994D01*
X259943Y10057D01*
X259052Y8723D01*
X258613Y8654D01*
X257387D01*
X256948Y8723D01*
X256057Y10057D01*
X254654Y10994D01*
X253000Y11323D01*
X251346Y10994D01*
X249943Y10057D01*
X249052Y8723D01*
X248613Y8654D01*
X247387D01*
X246948Y8723D01*
X246057Y10057D01*
X244654Y10994D01*
X243000Y11323D01*
X241346Y10994D01*
X239943Y10057D01*
X239052Y8723D01*
X238613Y8654D01*
X237387D01*
X236948Y8723D01*
X236057Y10057D01*
X234654Y10994D01*
X233000Y11323D01*
X231346Y10994D01*
X229943Y10057D01*
X229052Y8723D01*
X228613Y8654D01*
X227387D01*
X226948Y8723D01*
X226057Y10057D01*
X224654Y10994D01*
X223000Y11323D01*
X221346Y10994D01*
X219943Y10057D01*
X219052Y8723D01*
X218613Y8654D01*
X217387D01*
X216948Y8723D01*
X216057Y10057D01*
X214654Y10994D01*
X213000Y11323D01*
X211346Y10994D01*
X209943Y10057D01*
X209052Y8723D01*
X208613Y8654D01*
X207387D01*
X206948Y8723D01*
X206057Y10057D01*
X204654Y10994D01*
X203000Y11323D01*
X201346Y10994D01*
X199943Y10057D01*
X199052Y8723D01*
X198613Y8654D01*
X197387D01*
X196948Y8723D01*
X196057Y10057D01*
X194654Y10994D01*
X193000Y11323D01*
X191346Y10994D01*
X189943Y10057D01*
X189006Y8654D01*
X188677Y7000D01*
X189006Y5346D01*
X189943Y3943D01*
X190140Y1408D01*
X189920Y1082D01*
X136832D01*
Y27000D01*
X136515Y27765D01*
X132455Y31825D01*
X133751Y33404D01*
X134346Y33006D01*
X136000Y32677D01*
X137654Y33006D01*
X139057Y33943D01*
X139994Y35346D01*
X140323Y37000D01*
X139994Y38654D01*
X139057Y40057D01*
X137654Y40994D01*
X136000Y41323D01*
X134564Y41037D01*
X133731Y41731D01*
X133037Y42564D01*
X133323Y44000D01*
X132994Y45654D01*
X132057Y47057D01*
X130654Y47994D01*
X129500Y48224D01*
Y116942D01*
X131532Y117558D01*
X131943Y116943D01*
X133346Y116006D01*
X135000Y115677D01*
X136298Y115935D01*
X181031D01*
X182229Y114051D01*
X182210Y113903D01*
X180943Y113057D01*
X180006Y111654D01*
X179677Y110000D01*
X180006Y108346D01*
X180943Y106943D01*
X182277Y106052D01*
X182346Y105613D01*
Y104387D01*
X182277Y103948D01*
X180943Y103057D01*
X180006Y101654D01*
X179677Y100000D01*
X180006Y98346D01*
X180943Y96943D01*
X182277Y96052D01*
X182346Y95613D01*
Y94387D01*
X182277Y93948D01*
X180943Y93057D01*
X180006Y91654D01*
X179677Y90000D01*
X180006Y88346D01*
X180943Y86943D01*
X182346Y86006D01*
X184000Y85677D01*
X185654Y86006D01*
X187057Y86943D01*
X187994Y88346D01*
X188323Y90000D01*
X187994Y91654D01*
X187057Y93057D01*
X185723Y93948D01*
X185654Y94387D01*
Y95613D01*
X185723Y96052D01*
X187057Y96943D01*
X187994Y98346D01*
X188323Y100000D01*
X187994Y101654D01*
X187057Y103057D01*
X185723Y103948D01*
X185654Y104387D01*
Y105613D01*
X185723Y106052D01*
X187057Y106943D01*
X187994Y108346D01*
X188323Y110000D01*
X187994Y111654D01*
X187057Y113057D01*
X185766Y113919D01*
X185742Y114069D01*
X186667Y115951D01*
X205737D01*
X217679Y104010D01*
X217677Y104000D01*
X218006Y102346D01*
X218943Y100943D01*
X220346Y100006D01*
X222000Y99677D01*
X223654Y100006D01*
X225057Y100943D01*
X225994Y102346D01*
X226323Y104000D01*
X225994Y105654D01*
X225057Y107057D01*
X223654Y107994D01*
X222000Y108323D01*
X221990Y108321D01*
X209156Y121156D01*
X208167Y121817D01*
X207000Y122049D01*
X183045D01*
X182962Y122065D01*
X138720D01*
X138057Y123057D01*
X136654Y123994D01*
X135000Y124323D01*
X133346Y123994D01*
X131943Y123057D01*
X131532Y122442D01*
X129500Y123058D01*
Y142348D01*
X130500Y144221D01*
X134935D01*
X135712Y144375D01*
X136370Y144815D01*
X136810Y145473D01*
X136964Y146250D01*
Y158800D01*
X137080Y159381D01*
X137409Y159874D01*
X148115Y170579D01*
X148225Y170746D01*
X148367Y170887D01*
X148443Y171072D01*
X148554Y171238D01*
X148593Y171434D01*
X148670Y171618D01*
X148917Y172863D01*
X149406Y173594D01*
X150137Y174083D01*
X151000Y174254D01*
X151863Y174083D01*
D02*
G37*
G36*
X511000Y108000D02*
Y86000D01*
X510000Y85000D01*
X497000D01*
X469000Y113000D01*
X347000D01*
Y142000D01*
X477000D01*
X511000Y108000D01*
D02*
G37*
G36*
X603000Y94000D02*
Y61000D01*
X553269Y11269D01*
X553000Y11323D01*
X551346Y10994D01*
X549943Y10057D01*
X549006Y8654D01*
X548830Y7768D01*
X548515Y7517D01*
X547433Y7824D01*
X547089Y8176D01*
X546994Y8654D01*
X546057Y10057D01*
X544654Y10994D01*
X543000Y11323D01*
X541346Y10994D01*
X539943Y10057D01*
X539006Y8654D01*
X538677Y7000D01*
X539006Y5346D01*
X539943Y3943D01*
X541346Y3006D01*
X541986Y2879D01*
X542545Y1473D01*
X542267Y1082D01*
X347000D01*
Y5376D01*
X347323Y7000D01*
X347000Y8624D01*
Y41000D01*
X528000D01*
X565344Y78344D01*
X566679Y77010D01*
X566677Y77000D01*
X567006Y75346D01*
X567943Y73943D01*
X569346Y73006D01*
X571000Y72677D01*
X572654Y73006D01*
X574057Y73943D01*
X574994Y75346D01*
X575323Y77000D01*
X574994Y78654D01*
X574057Y80057D01*
X572654Y80994D01*
X571000Y81323D01*
X570990Y81321D01*
X569656Y82656D01*
X583000Y96000D01*
X601000Y96000D01*
X603000Y94000D01*
D02*
G37*
%LPC*%
G36*
X348385Y167582D02*
X346731Y167253D01*
X345328Y166315D01*
X344391Y164913D01*
X344062Y163259D01*
X344391Y161604D01*
X345328Y160202D01*
X346731Y159265D01*
X348385Y158936D01*
X350040Y159265D01*
X351442Y160202D01*
X352379Y161604D01*
X352708Y163259D01*
X352379Y164913D01*
X351442Y166315D01*
X350040Y167253D01*
X348385Y167582D01*
D02*
G37*
G36*
X333885D02*
X332231Y167253D01*
X330828Y166315D01*
X329891Y164913D01*
X329562Y163259D01*
X329891Y161604D01*
X330828Y160202D01*
X332231Y159265D01*
X333885Y158936D01*
X335540Y159265D01*
X336942Y160202D01*
X337879Y161604D01*
X338208Y163259D01*
X337879Y164913D01*
X336942Y166315D01*
X335540Y167253D01*
X333885Y167582D01*
D02*
G37*
G36*
X319385D02*
X317731Y167253D01*
X316328Y166315D01*
X315391Y164913D01*
X315062Y163259D01*
X315391Y161604D01*
X316328Y160202D01*
X317731Y159265D01*
X319385Y158936D01*
X321040Y159265D01*
X322442Y160202D01*
X323379Y161604D01*
X323708Y163259D01*
X323379Y164913D01*
X322442Y166315D01*
X321040Y167253D01*
X319385Y167582D01*
D02*
G37*
G36*
X304885D02*
X303231Y167253D01*
X301828Y166315D01*
X300891Y164913D01*
X300562Y163259D01*
X300891Y161604D01*
X301828Y160202D01*
X303231Y159265D01*
X304885Y158936D01*
X306540Y159265D01*
X307942Y160202D01*
X308879Y161604D01*
X309208Y163259D01*
X308879Y164913D01*
X307942Y166315D01*
X306540Y167253D01*
X304885Y167582D01*
D02*
G37*
G36*
X290385D02*
X288731Y167253D01*
X287328Y166315D01*
X286391Y164913D01*
X286062Y163259D01*
X286391Y161604D01*
X287328Y160202D01*
X288731Y159265D01*
X290385Y158936D01*
X292040Y159265D01*
X293442Y160202D01*
X294379Y161604D01*
X294708Y163259D01*
X294379Y164913D01*
X293442Y166315D01*
X292040Y167253D01*
X290385Y167582D01*
D02*
G37*
G36*
X275885D02*
X274231Y167253D01*
X272828Y166315D01*
X271891Y164913D01*
X271562Y163259D01*
X271891Y161604D01*
X272828Y160202D01*
X274231Y159265D01*
X275885Y158936D01*
X277540Y159265D01*
X278942Y160202D01*
X279879Y161604D01*
X280208Y163259D01*
X279879Y164913D01*
X278942Y166315D01*
X277540Y167253D01*
X275885Y167582D01*
D02*
G37*
G36*
X261385D02*
X259731Y167253D01*
X258328Y166315D01*
X257391Y164913D01*
X257062Y163259D01*
X257391Y161604D01*
X258328Y160202D01*
X259731Y159265D01*
X261385Y158936D01*
X263040Y159265D01*
X264442Y160202D01*
X265379Y161604D01*
X265708Y163259D01*
X265379Y164913D01*
X264442Y166315D01*
X263040Y167253D01*
X261385Y167582D01*
D02*
G37*
G36*
X246885D02*
X245231Y167253D01*
X243828Y166315D01*
X242891Y164913D01*
X242562Y163259D01*
X242891Y161604D01*
X243828Y160202D01*
X245231Y159265D01*
X246885Y158936D01*
X248540Y159265D01*
X249942Y160202D01*
X250879Y161604D01*
X251208Y163259D01*
X250879Y164913D01*
X249942Y166315D01*
X248540Y167253D01*
X246885Y167582D01*
D02*
G37*
G36*
X232385D02*
X230731Y167253D01*
X229328Y166315D01*
X228391Y164913D01*
X228062Y163259D01*
X228391Y161604D01*
X229328Y160202D01*
X230731Y159265D01*
X232385Y158936D01*
X234040Y159265D01*
X235442Y160202D01*
X236379Y161604D01*
X236708Y163259D01*
X236379Y164913D01*
X235442Y166315D01*
X234040Y167253D01*
X232385Y167582D01*
D02*
G37*
G36*
X218158Y164781D02*
X216504Y164452D01*
X215102Y163514D01*
X214164Y162112D01*
X213835Y160458D01*
X214164Y158803D01*
X215102Y157401D01*
X216504Y156464D01*
X218158Y156135D01*
X219813Y156464D01*
X221215Y157401D01*
X222152Y158803D01*
X222481Y160458D01*
X222152Y162112D01*
X221215Y163514D01*
X219813Y164452D01*
X218158Y164781D01*
D02*
G37*
G36*
X185000Y184323D02*
X183346Y183994D01*
X181943Y183057D01*
X181006Y181654D01*
X180677Y180000D01*
X181006Y178346D01*
X181943Y176943D01*
X183277Y176052D01*
X183346Y175613D01*
Y174387D01*
X183277Y173948D01*
X181943Y173057D01*
X181006Y171654D01*
X180677Y170000D01*
X181006Y168346D01*
X181943Y166943D01*
X183277Y166052D01*
X183346Y165613D01*
Y164387D01*
X183277Y163948D01*
X181943Y163057D01*
X181006Y161654D01*
X180677Y160000D01*
X181006Y158346D01*
X181943Y156943D01*
X183346Y156006D01*
X185000Y155677D01*
X186654Y156006D01*
X188057Y156943D01*
X188994Y158346D01*
X189323Y160000D01*
X188994Y161654D01*
X188057Y163057D01*
X186723Y163948D01*
X186654Y164387D01*
Y165613D01*
X186723Y166052D01*
X188057Y166943D01*
X188994Y168346D01*
X189323Y170000D01*
X188994Y171654D01*
X188057Y173057D01*
X186723Y173948D01*
X186654Y174387D01*
Y175613D01*
X186723Y176052D01*
X188057Y176943D01*
X188994Y178346D01*
X189323Y180000D01*
X188994Y181654D01*
X188057Y183057D01*
X186654Y183994D01*
X185000Y184323D01*
D02*
G37*
G36*
X206355Y156358D02*
X204701Y156029D01*
X203299Y155092D01*
X202362Y153689D01*
X202032Y152035D01*
X202362Y150381D01*
X203299Y148978D01*
X204701Y148041D01*
X206355Y147712D01*
X208010Y148041D01*
X209412Y148978D01*
X210349Y150381D01*
X210679Y152035D01*
X210349Y153689D01*
X209412Y155092D01*
X208010Y156029D01*
X206355Y156358D01*
D02*
G37*
G36*
X192356Y152582D02*
X190702Y152253D01*
X189299Y151315D01*
X188362Y149913D01*
X188033Y148259D01*
X188362Y146604D01*
X189299Y145202D01*
X190702Y144265D01*
X192356Y143936D01*
X194010Y144265D01*
X195413Y145202D01*
X196350Y146604D01*
X196679Y148259D01*
X196350Y149913D01*
X195413Y151315D01*
X194010Y152253D01*
X192356Y152582D01*
D02*
G37*
G36*
X325831Y151064D02*
X324177Y150735D01*
X322775Y149798D01*
X321838Y148396D01*
X321508Y146741D01*
X321838Y145087D01*
X322775Y143685D01*
X324177Y142747D01*
X325831Y142418D01*
X327486Y142747D01*
X328888Y143685D01*
X329825Y145087D01*
X330154Y146741D01*
X329825Y148396D01*
X328888Y149798D01*
X327486Y150735D01*
X325831Y151064D01*
D02*
G37*
G36*
X311332D02*
X309677Y150735D01*
X308275Y149798D01*
X307337Y148396D01*
X307008Y146741D01*
X307337Y145087D01*
X308275Y143685D01*
X309677Y142747D01*
X311332Y142418D01*
X312986Y142747D01*
X314388Y143685D01*
X315325Y145087D01*
X315655Y146741D01*
X315325Y148396D01*
X314388Y149798D01*
X312986Y150735D01*
X311332Y151064D01*
D02*
G37*
G36*
X296831D02*
X295177Y150735D01*
X293775Y149798D01*
X292838Y148396D01*
X292508Y146741D01*
X292838Y145087D01*
X293775Y143685D01*
X295177Y142747D01*
X296831Y142418D01*
X298486Y142747D01*
X299888Y143685D01*
X300825Y145087D01*
X301154Y146741D01*
X300825Y148396D01*
X299888Y149798D01*
X298486Y150735D01*
X296831Y151064D01*
D02*
G37*
G36*
X282332D02*
X280677Y150735D01*
X279275Y149798D01*
X278337Y148396D01*
X278008Y146741D01*
X278337Y145087D01*
X279275Y143685D01*
X280677Y142747D01*
X282332Y142418D01*
X283986Y142747D01*
X285388Y143685D01*
X286325Y145087D01*
X286654Y146741D01*
X286325Y148396D01*
X285388Y149798D01*
X283986Y150735D01*
X282332Y151064D01*
D02*
G37*
G36*
X267831D02*
X266177Y150735D01*
X264775Y149798D01*
X263838Y148396D01*
X263508Y146741D01*
X263838Y145087D01*
X264775Y143685D01*
X266177Y142747D01*
X267831Y142418D01*
X269486Y142747D01*
X270888Y143685D01*
X271825Y145087D01*
X272155Y146741D01*
X271825Y148396D01*
X270888Y149798D01*
X269486Y150735D01*
X267831Y151064D01*
D02*
G37*
G36*
X253332D02*
X251677Y150735D01*
X250275Y149798D01*
X249338Y148396D01*
X249008Y146741D01*
X249338Y145087D01*
X250275Y143685D01*
X251677Y142747D01*
X253332Y142418D01*
X254986Y142747D01*
X256388Y143685D01*
X257325Y145087D01*
X257654Y146741D01*
X257325Y148396D01*
X256388Y149798D01*
X254986Y150735D01*
X253332Y151064D01*
D02*
G37*
G36*
X238832D02*
X237177Y150735D01*
X235775Y149798D01*
X234837Y148396D01*
X234508Y146741D01*
X234837Y145087D01*
X235775Y143685D01*
X237177Y142747D01*
X238832Y142418D01*
X240486Y142747D01*
X241888Y143685D01*
X242825Y145087D01*
X243155Y146741D01*
X242825Y148396D01*
X241888Y149798D01*
X240486Y150735D01*
X238832Y151064D01*
D02*
G37*
G36*
X224420Y149461D02*
X222766Y149132D01*
X221364Y148195D01*
X220426Y146792D01*
X220097Y145138D01*
X220426Y143484D01*
X221364Y142081D01*
X222766Y141144D01*
X224420Y140815D01*
X226075Y141144D01*
X227477Y142081D01*
X228414Y143484D01*
X228743Y145138D01*
X228414Y146792D01*
X227477Y148195D01*
X226075Y149132D01*
X224420Y149461D01*
D02*
G37*
G36*
X213224Y140247D02*
X211570Y139918D01*
X210167Y138981D01*
X209230Y137578D01*
X208901Y135924D01*
X209230Y134270D01*
X210167Y132867D01*
X211570Y131930D01*
X213224Y131601D01*
X214879Y131930D01*
X216281Y132867D01*
X217218Y134270D01*
X217547Y135924D01*
X217218Y137578D01*
X216281Y138981D01*
X214879Y139918D01*
X213224Y140247D01*
D02*
G37*
G36*
X290000Y113323D02*
X288346Y112994D01*
X286943Y112057D01*
X286006Y110654D01*
X285677Y109000D01*
X286006Y107346D01*
X286943Y105943D01*
X288346Y105006D01*
X290000Y104677D01*
X291654Y105006D01*
X293057Y105943D01*
X293994Y107346D01*
X294323Y109000D01*
X293994Y110654D01*
X293057Y112057D01*
X291654Y112994D01*
X290000Y113323D01*
D02*
G37*
G36*
X452000Y100323D02*
X450346Y99994D01*
X448943Y99057D01*
X448006Y97654D01*
X447677Y96000D01*
X448006Y94346D01*
X448943Y92943D01*
X450346Y92006D01*
X452000Y91677D01*
X453654Y92006D01*
X455057Y92943D01*
X455994Y94346D01*
X456323Y96000D01*
X455994Y97654D01*
X455057Y99057D01*
X453654Y99994D01*
X452000Y100323D01*
D02*
G37*
G36*
X439000D02*
X437346Y99994D01*
X435943Y99057D01*
X435006Y97654D01*
X434677Y96000D01*
X435006Y94346D01*
X435943Y92943D01*
X437346Y92006D01*
X439000Y91677D01*
X440654Y92006D01*
X442057Y92943D01*
X442994Y94346D01*
X443323Y96000D01*
X442994Y97654D01*
X442057Y99057D01*
X440654Y99994D01*
X439000Y100323D01*
D02*
G37*
G36*
X287000Y68323D02*
X285346Y67994D01*
X283943Y67057D01*
X283006Y65654D01*
X282677Y64000D01*
X283006Y62346D01*
X283943Y60943D01*
X285346Y60006D01*
X287000Y59677D01*
X288654Y60006D01*
X290057Y60943D01*
X290994Y62346D01*
X291323Y64000D01*
X290994Y65654D01*
X290057Y67057D01*
X288654Y67994D01*
X287000Y68323D01*
D02*
G37*
G36*
X452000Y61323D02*
X450346Y60994D01*
X448943Y60057D01*
X448006Y58654D01*
X447677Y57000D01*
X448006Y55346D01*
X448943Y53943D01*
X450346Y53006D01*
X452000Y52677D01*
X453654Y53006D01*
X455057Y53943D01*
X455994Y55346D01*
X456323Y57000D01*
X455994Y58654D01*
X455057Y60057D01*
X453654Y60994D01*
X452000Y61323D01*
D02*
G37*
G36*
X439000D02*
X437346Y60994D01*
X435943Y60057D01*
X435006Y58654D01*
X434677Y57000D01*
X435006Y55346D01*
X435943Y53943D01*
X437346Y53006D01*
X439000Y52677D01*
X440654Y53006D01*
X442057Y53943D01*
X442994Y55346D01*
X443323Y57000D01*
X442994Y58654D01*
X442057Y60057D01*
X440654Y60994D01*
X439000Y61323D01*
D02*
G37*
G36*
X277000Y59323D02*
X275346Y58994D01*
X273943Y58057D01*
X273006Y56654D01*
X272677Y55000D01*
X273006Y53346D01*
X273943Y51943D01*
X275346Y51006D01*
X277000Y50677D01*
X278654Y51006D01*
X280057Y51943D01*
X280994Y53346D01*
X281323Y55000D01*
X280994Y56654D01*
X280057Y58057D01*
X278654Y58994D01*
X277000Y59323D01*
D02*
G37*
G36*
X184000Y34323D02*
X182346Y33994D01*
X180943Y33057D01*
X180052Y31723D01*
X179613Y31654D01*
X178387D01*
X177948Y31723D01*
X177057Y33057D01*
X175654Y33994D01*
X174000Y34323D01*
X172346Y33994D01*
X170943Y33057D01*
X170052Y31723D01*
X169613Y31654D01*
X168387D01*
X167948Y31723D01*
X167057Y33057D01*
X165654Y33994D01*
X164000Y34323D01*
X162346Y33994D01*
X160943Y33057D01*
X160052Y31723D01*
X159613Y31654D01*
X158387D01*
X157948Y31723D01*
X157057Y33057D01*
X155654Y33994D01*
X154000Y34323D01*
X152346Y33994D01*
X150943Y33057D01*
X150052Y31723D01*
X149613Y31654D01*
X148387D01*
X147948Y31723D01*
X147057Y33057D01*
X145654Y33994D01*
X144000Y34323D01*
X142346Y33994D01*
X140943Y33057D01*
X140006Y31654D01*
X139677Y30000D01*
X140006Y28346D01*
X140772Y27200D01*
X140943Y26943D01*
X140943Y25057D01*
X140772Y24800D01*
X140006Y23654D01*
X139677Y22000D01*
X140006Y20346D01*
X140224Y20020D01*
X140781Y18500D01*
X140224Y16980D01*
X140006Y16654D01*
X139677Y15000D01*
X140006Y13346D01*
X140224Y13020D01*
X140781Y11500D01*
X140224Y9980D01*
X140006Y9654D01*
X139677Y8000D01*
X140006Y6346D01*
X140943Y4943D01*
X142346Y4006D01*
X144000Y3677D01*
X145654Y4006D01*
X146800Y4771D01*
X147057Y4943D01*
X148943Y4943D01*
X149200Y4771D01*
X150346Y4006D01*
X152000Y3677D01*
X153654Y4006D01*
X154800Y4771D01*
X155057Y4943D01*
X156943Y4943D01*
X157200Y4771D01*
X158346Y4006D01*
X160000Y3677D01*
X161654Y4006D01*
X163057Y4943D01*
X163994Y6346D01*
X164323Y8000D01*
X163994Y9654D01*
X163776Y9980D01*
X163219Y11500D01*
X163776Y13020D01*
X163994Y13346D01*
X164323Y15000D01*
X163994Y16654D01*
X163776Y16980D01*
X163219Y18500D01*
X163776Y20020D01*
X163994Y20346D01*
X164323Y22000D01*
X163994Y23654D01*
X163931Y23749D01*
X163934Y23829D01*
X164959Y25868D01*
X165654Y26006D01*
X167057Y26943D01*
X167948Y28277D01*
X168387Y28346D01*
X169613D01*
X170052Y28277D01*
X170943Y26943D01*
X172346Y26006D01*
X174000Y25677D01*
X175654Y26006D01*
X177057Y26943D01*
X177948Y28277D01*
X178387Y28346D01*
X179613D01*
X180052Y28277D01*
X180943Y26943D01*
X182346Y26006D01*
X184000Y25677D01*
X185654Y26006D01*
X187057Y26943D01*
X187994Y28346D01*
X188323Y30000D01*
X187994Y31654D01*
X187057Y33057D01*
X185654Y33994D01*
X184000Y34323D01*
D02*
G37*
G36*
X232000Y32323D02*
X230346Y31994D01*
X228943Y31057D01*
X228006Y29654D01*
X227677Y28000D01*
X228006Y26346D01*
X228943Y24943D01*
X230346Y24006D01*
X232000Y23677D01*
X233654Y24006D01*
X235057Y24943D01*
X235994Y26346D01*
X236323Y28000D01*
X235994Y29654D01*
X235057Y31057D01*
X233654Y31994D01*
X232000Y32323D01*
D02*
G37*
G36*
X223000Y22323D02*
X221346Y21994D01*
X219943Y21057D01*
X219006Y19654D01*
X218677Y18000D01*
X219006Y16346D01*
X219943Y14943D01*
X221346Y14006D01*
X223000Y13677D01*
X224654Y14006D01*
X226057Y14943D01*
X226994Y16346D01*
X227323Y18000D01*
X226994Y19654D01*
X226057Y21057D01*
X224654Y21994D01*
X223000Y22323D01*
D02*
G37*
G36*
X574000Y63323D02*
X572346Y62994D01*
X570943Y62057D01*
X570006Y60654D01*
X569677Y59000D01*
X570006Y57346D01*
X570943Y55943D01*
X572346Y55006D01*
X574000Y54677D01*
X575654Y55006D01*
X577057Y55943D01*
X577994Y57346D01*
X578323Y59000D01*
X577994Y60654D01*
X577057Y62057D01*
X575654Y62994D01*
X574000Y63323D01*
D02*
G37*
G36*
X582000Y57323D02*
X580346Y56994D01*
X578943Y56057D01*
X578006Y54654D01*
X577677Y53000D01*
X578006Y51346D01*
X578943Y49943D01*
X580346Y49006D01*
X582000Y48677D01*
X583654Y49006D01*
X585057Y49943D01*
X585994Y51346D01*
X586323Y53000D01*
X585994Y54654D01*
X585057Y56057D01*
X583654Y56994D01*
X582000Y57323D01*
D02*
G37*
G36*
X533000Y11323D02*
X531346Y10994D01*
X529943Y10057D01*
X529006Y8654D01*
X528677Y7000D01*
X529006Y5346D01*
X529943Y3943D01*
X531346Y3006D01*
X533000Y2677D01*
X534654Y3006D01*
X536057Y3943D01*
X536994Y5346D01*
X537323Y7000D01*
X536994Y8654D01*
X536057Y10057D01*
X534654Y10994D01*
X533000Y11323D01*
D02*
G37*
G36*
X523000D02*
X521346Y10994D01*
X519943Y10057D01*
X519006Y8654D01*
X518677Y7000D01*
X519006Y5346D01*
X519943Y3943D01*
X521346Y3006D01*
X523000Y2677D01*
X524654Y3006D01*
X526057Y3943D01*
X526994Y5346D01*
X527323Y7000D01*
X526994Y8654D01*
X526057Y10057D01*
X524654Y10994D01*
X523000Y11323D01*
D02*
G37*
G36*
X513000D02*
X511346Y10994D01*
X509943Y10057D01*
X509006Y8654D01*
X508677Y7000D01*
X509006Y5346D01*
X509943Y3943D01*
X511346Y3006D01*
X513000Y2677D01*
X514654Y3006D01*
X516057Y3943D01*
X516994Y5346D01*
X517323Y7000D01*
X516994Y8654D01*
X516057Y10057D01*
X514654Y10994D01*
X513000Y11323D01*
D02*
G37*
G36*
X503000D02*
X501346Y10994D01*
X499943Y10057D01*
X499006Y8654D01*
X498677Y7000D01*
X499006Y5346D01*
X499943Y3943D01*
X501346Y3006D01*
X503000Y2677D01*
X504654Y3006D01*
X506057Y3943D01*
X506994Y5346D01*
X507323Y7000D01*
X506994Y8654D01*
X506057Y10057D01*
X504654Y10994D01*
X503000Y11323D01*
D02*
G37*
G36*
X493000D02*
X491346Y10994D01*
X489943Y10057D01*
X489006Y8654D01*
X488677Y7000D01*
X489006Y5346D01*
X489943Y3943D01*
X491346Y3006D01*
X493000Y2677D01*
X494654Y3006D01*
X496057Y3943D01*
X496994Y5346D01*
X497323Y7000D01*
X496994Y8654D01*
X496057Y10057D01*
X494654Y10994D01*
X493000Y11323D01*
D02*
G37*
G36*
X483000D02*
X481346Y10994D01*
X479943Y10057D01*
X479006Y8654D01*
X478677Y7000D01*
X479006Y5346D01*
X479943Y3943D01*
X481346Y3006D01*
X483000Y2677D01*
X484654Y3006D01*
X486057Y3943D01*
X486994Y5346D01*
X487323Y7000D01*
X486994Y8654D01*
X486057Y10057D01*
X484654Y10994D01*
X483000Y11323D01*
D02*
G37*
G36*
X473000D02*
X471346Y10994D01*
X469943Y10057D01*
X469006Y8654D01*
X468677Y7000D01*
X469006Y5346D01*
X469943Y3943D01*
X471346Y3006D01*
X473000Y2677D01*
X474654Y3006D01*
X476057Y3943D01*
X476994Y5346D01*
X477323Y7000D01*
X476994Y8654D01*
X476057Y10057D01*
X474654Y10994D01*
X473000Y11323D01*
D02*
G37*
G36*
X463000D02*
X461346Y10994D01*
X459943Y10057D01*
X459006Y8654D01*
X458677Y7000D01*
X459006Y5346D01*
X459943Y3943D01*
X461346Y3006D01*
X463000Y2677D01*
X464654Y3006D01*
X466057Y3943D01*
X466994Y5346D01*
X467323Y7000D01*
X466994Y8654D01*
X466057Y10057D01*
X464654Y10994D01*
X463000Y11323D01*
D02*
G37*
G36*
X453000D02*
X451346Y10994D01*
X449943Y10057D01*
X449006Y8654D01*
X448677Y7000D01*
X449006Y5346D01*
X449943Y3943D01*
X451346Y3006D01*
X453000Y2677D01*
X454654Y3006D01*
X456057Y3943D01*
X456994Y5346D01*
X457323Y7000D01*
X456994Y8654D01*
X456057Y10057D01*
X454654Y10994D01*
X453000Y11323D01*
D02*
G37*
G36*
X443000D02*
X441346Y10994D01*
X439943Y10057D01*
X439006Y8654D01*
X438677Y7000D01*
X439006Y5346D01*
X439943Y3943D01*
X441346Y3006D01*
X443000Y2677D01*
X444654Y3006D01*
X446057Y3943D01*
X446994Y5346D01*
X447323Y7000D01*
X446994Y8654D01*
X446057Y10057D01*
X444654Y10994D01*
X443000Y11323D01*
D02*
G37*
G36*
X433000D02*
X431346Y10994D01*
X429943Y10057D01*
X429006Y8654D01*
X428677Y7000D01*
X429006Y5346D01*
X429943Y3943D01*
X431346Y3006D01*
X433000Y2677D01*
X434654Y3006D01*
X436057Y3943D01*
X436994Y5346D01*
X437323Y7000D01*
X436994Y8654D01*
X436057Y10057D01*
X434654Y10994D01*
X433000Y11323D01*
D02*
G37*
G36*
X423000D02*
X421346Y10994D01*
X419943Y10057D01*
X419006Y8654D01*
X418677Y7000D01*
X419006Y5346D01*
X419943Y3943D01*
X421346Y3006D01*
X423000Y2677D01*
X424654Y3006D01*
X426057Y3943D01*
X426994Y5346D01*
X427323Y7000D01*
X426994Y8654D01*
X426057Y10057D01*
X424654Y10994D01*
X423000Y11323D01*
D02*
G37*
G36*
X413000D02*
X411346Y10994D01*
X409943Y10057D01*
X409006Y8654D01*
X408677Y7000D01*
X409006Y5346D01*
X409943Y3943D01*
X411346Y3006D01*
X413000Y2677D01*
X414654Y3006D01*
X416057Y3943D01*
X416994Y5346D01*
X417323Y7000D01*
X416994Y8654D01*
X416057Y10057D01*
X414654Y10994D01*
X413000Y11323D01*
D02*
G37*
G36*
X403000D02*
X401346Y10994D01*
X399943Y10057D01*
X399006Y8654D01*
X398677Y7000D01*
X399006Y5346D01*
X399943Y3943D01*
X401346Y3006D01*
X403000Y2677D01*
X404654Y3006D01*
X406057Y3943D01*
X406994Y5346D01*
X407323Y7000D01*
X406994Y8654D01*
X406057Y10057D01*
X404654Y10994D01*
X403000Y11323D01*
D02*
G37*
G36*
X393000D02*
X391346Y10994D01*
X389943Y10057D01*
X389006Y8654D01*
X388677Y7000D01*
X389006Y5346D01*
X389943Y3943D01*
X391346Y3006D01*
X393000Y2677D01*
X394654Y3006D01*
X396057Y3943D01*
X396994Y5346D01*
X397323Y7000D01*
X396994Y8654D01*
X396057Y10057D01*
X394654Y10994D01*
X393000Y11323D01*
D02*
G37*
G36*
X383000D02*
X381346Y10994D01*
X379943Y10057D01*
X379006Y8654D01*
X378677Y7000D01*
X379006Y5346D01*
X379943Y3943D01*
X381346Y3006D01*
X383000Y2677D01*
X384654Y3006D01*
X386057Y3943D01*
X386994Y5346D01*
X387323Y7000D01*
X386994Y8654D01*
X386057Y10057D01*
X384654Y10994D01*
X383000Y11323D01*
D02*
G37*
G36*
X373000D02*
X371346Y10994D01*
X369943Y10057D01*
X369006Y8654D01*
X368677Y7000D01*
X369006Y5346D01*
X369943Y3943D01*
X371346Y3006D01*
X373000Y2677D01*
X374654Y3006D01*
X376057Y3943D01*
X376994Y5346D01*
X377323Y7000D01*
X376994Y8654D01*
X376057Y10057D01*
X374654Y10994D01*
X373000Y11323D01*
D02*
G37*
G36*
X363000D02*
X361346Y10994D01*
X359943Y10057D01*
X359006Y8654D01*
X358677Y7000D01*
X359006Y5346D01*
X359943Y3943D01*
X361346Y3006D01*
X363000Y2677D01*
X364654Y3006D01*
X366057Y3943D01*
X366994Y5346D01*
X367323Y7000D01*
X366994Y8654D01*
X366057Y10057D01*
X364654Y10994D01*
X363000Y11323D01*
D02*
G37*
G36*
X353000D02*
X351346Y10994D01*
X349943Y10057D01*
X349006Y8654D01*
X348677Y7000D01*
X349006Y5346D01*
X349943Y3943D01*
X351346Y3006D01*
X353000Y2677D01*
X354654Y3006D01*
X356057Y3943D01*
X356994Y5346D01*
X357323Y7000D01*
X356994Y8654D01*
X356057Y10057D01*
X354654Y10994D01*
X353000Y11323D01*
D02*
G37*
%LPD*%
D13*
X182962Y119000D02*
X207000D01*
X222000Y104000D01*
X547000Y107000D02*
X561000Y93000D01*
Y87000D02*
X571000Y77000D01*
X561000Y87000D02*
Y93000D01*
X540000Y107000D02*
X547000D01*
D77*
X135000Y120000D02*
X136000Y119000D01*
X182962D01*
X143000Y124000D02*
X217250D01*
X138000Y129000D02*
X143000Y124000D01*
X138000Y129000D02*
Y159000D01*
X151000Y172000D01*
X217250Y124000D02*
X226000Y115250D01*
D78*
X683500Y13000D02*
D03*
Y79000D02*
D03*
D79*
X643000Y7000D02*
D03*
X144000Y15000D02*
D03*
Y8000D02*
D03*
Y22000D02*
D03*
D03*
Y8000D02*
D03*
Y15000D02*
D03*
X152000Y22000D02*
D03*
Y8000D02*
D03*
Y15000D02*
D03*
X160000Y22000D02*
D03*
Y8000D02*
D03*
Y15000D02*
D03*
X65000Y185000D02*
D03*
Y178000D02*
D03*
Y192000D02*
D03*
D03*
Y178000D02*
D03*
Y185000D02*
D03*
X73000Y192000D02*
D03*
Y178000D02*
D03*
Y185000D02*
D03*
X81000Y192000D02*
D03*
Y178000D02*
D03*
Y185000D02*
D03*
X21000Y135000D02*
D03*
Y128000D02*
D03*
Y142000D02*
D03*
X13000Y135000D02*
D03*
Y128000D02*
D03*
Y142000D02*
D03*
X5000Y135000D02*
D03*
Y128000D02*
D03*
Y142000D02*
D03*
D03*
Y128000D02*
D03*
Y135000D02*
D03*
X145022Y130128D02*
D03*
X150000Y135000D02*
D03*
X154953Y130059D02*
D03*
X144981Y140059D02*
D03*
X155000Y140000D02*
D03*
X638385Y163259D02*
D03*
X623885D02*
D03*
X609385D02*
D03*
X594885D02*
D03*
X580385D02*
D03*
X565885D02*
D03*
X551385D02*
D03*
X536885D02*
D03*
X522385D02*
D03*
X507885D02*
D03*
X493385D02*
D03*
X478885D02*
D03*
X464385D02*
D03*
X449885D02*
D03*
X435385D02*
D03*
X420885D02*
D03*
X406385D02*
D03*
X391885D02*
D03*
X377385D02*
D03*
X362885D02*
D03*
X348385D02*
D03*
X333885D02*
D03*
X319385D02*
D03*
X304885D02*
D03*
X290385D02*
D03*
X275885D02*
D03*
X261385D02*
D03*
X246885D02*
D03*
X232385D02*
D03*
X218158Y160458D02*
D03*
X206355Y152035D02*
D03*
X192356Y148259D02*
D03*
X213224Y135924D02*
D03*
X224420Y145138D02*
D03*
X238832Y146741D02*
D03*
X253332D02*
D03*
X267831D02*
D03*
X282332D02*
D03*
X296831D02*
D03*
X311332D02*
D03*
X325831D02*
D03*
X340331D02*
D03*
X354831D02*
D03*
X369331D02*
D03*
X383831D02*
D03*
X398331D02*
D03*
X412831D02*
D03*
X427331D02*
D03*
X441831D02*
D03*
X456331D02*
D03*
X470831D02*
D03*
X485331D02*
D03*
X499831D02*
D03*
X514331D02*
D03*
X528831D02*
D03*
X543331D02*
D03*
X557831D02*
D03*
X572331D02*
D03*
X586831D02*
D03*
X601331D02*
D03*
X615831D02*
D03*
X630331D02*
D03*
X644831D02*
D03*
X623999Y195000D02*
D03*
X633999D02*
D03*
X603999D02*
D03*
X613999D02*
D03*
X693999Y115000D02*
D03*
X683999D02*
D03*
X673999D02*
D03*
X653999D02*
D03*
X663999D02*
D03*
X633999D02*
D03*
X643999D02*
D03*
Y195000D02*
D03*
X663999D02*
D03*
X653999D02*
D03*
X656000Y164000D02*
D03*
X666000D02*
D03*
X677000D02*
D03*
X694000Y171000D02*
D03*
X589999Y193000D02*
D03*
X673999Y195000D02*
D03*
X683999D02*
D03*
X693999D02*
D03*
X151000Y172000D02*
D03*
X549000Y86000D02*
D03*
X544065Y81019D02*
D03*
X554000Y91000D02*
D03*
X554043Y81019D02*
D03*
X544000Y91000D02*
D03*
X587000Y109000D02*
D03*
X578000D02*
D03*
X525000Y75000D02*
D03*
Y82000D02*
D03*
X582000Y53000D02*
D03*
X574000Y59000D02*
D03*
X571000Y77000D02*
D03*
X540000Y107000D02*
D03*
X272000Y177000D02*
D03*
X222000Y104000D02*
D03*
X235000Y116000D02*
D03*
X277000Y92000D02*
D03*
X193000Y7000D02*
D03*
X666000Y146000D02*
D03*
X452000Y57000D02*
D03*
X439000D02*
D03*
X452000Y96000D02*
D03*
X439000D02*
D03*
X357000Y116000D02*
D03*
Y123000D02*
D03*
X350000Y116000D02*
D03*
Y123000D02*
D03*
Y31000D02*
D03*
X357000D02*
D03*
X350000Y38000D02*
D03*
X357000D02*
D03*
X599000Y85000D02*
D03*
X506000Y97000D02*
D03*
X499000D02*
D03*
X506000Y90000D02*
D03*
X499000D02*
D03*
X423000Y51000D02*
D03*
X415000D02*
D03*
X407000D02*
D03*
X400000D02*
D03*
X423000Y101000D02*
D03*
X415000D02*
D03*
X407000D02*
D03*
X400000D02*
D03*
X599000Y92000D02*
D03*
X592000Y85000D02*
D03*
Y92000D02*
D03*
X185000Y170000D02*
D03*
X115000Y80000D02*
D03*
X135000Y190000D02*
D03*
X105000Y90000D02*
D03*
X95000Y100000D02*
D03*
X85000Y110000D02*
D03*
X95000D02*
D03*
X105000D02*
D03*
X80000Y93000D02*
D03*
X105000Y100000D02*
D03*
X115000Y110000D02*
D03*
X694000Y86000D02*
D03*
Y96000D02*
D03*
Y106000D02*
D03*
X203000Y7000D02*
D03*
X213000D02*
D03*
X223000D02*
D03*
X233000D02*
D03*
X243000D02*
D03*
X253000D02*
D03*
X303000D02*
D03*
X293000D02*
D03*
X283000D02*
D03*
X273000D02*
D03*
X263000D02*
D03*
X353000D02*
D03*
X363000D02*
D03*
X343000D02*
D03*
X333000D02*
D03*
X323000D02*
D03*
X313000D02*
D03*
X433000D02*
D03*
X443000D02*
D03*
X453000D02*
D03*
X463000D02*
D03*
X473000D02*
D03*
X423000D02*
D03*
X413000D02*
D03*
X403000D02*
D03*
X393000D02*
D03*
X383000D02*
D03*
X373000D02*
D03*
X543000D02*
D03*
X553000D02*
D03*
X563000D02*
D03*
X573000D02*
D03*
X583000D02*
D03*
X533000D02*
D03*
X523000D02*
D03*
X513000D02*
D03*
X503000D02*
D03*
X493000D02*
D03*
X483000D02*
D03*
X593000D02*
D03*
X603000D02*
D03*
X633000D02*
D03*
X623000D02*
D03*
X613000D02*
D03*
X581000Y193000D02*
D03*
X471000D02*
D03*
X481000D02*
D03*
X491000D02*
D03*
X501000D02*
D03*
X511000D02*
D03*
X521000D02*
D03*
X571000D02*
D03*
X561000D02*
D03*
X551000D02*
D03*
X541000D02*
D03*
X531000D02*
D03*
X361000D02*
D03*
X371000D02*
D03*
X381000D02*
D03*
X391000D02*
D03*
X401000D02*
D03*
X411000D02*
D03*
X461000D02*
D03*
X451000D02*
D03*
X441000D02*
D03*
X431000D02*
D03*
X421000D02*
D03*
X301000D02*
D03*
X311000D02*
D03*
X321000D02*
D03*
X331000D02*
D03*
X341000D02*
D03*
X351000D02*
D03*
X251000D02*
D03*
X261000D02*
D03*
X271000D02*
D03*
X281000D02*
D03*
X291000D02*
D03*
X241000D02*
D03*
X231000D02*
D03*
X221000D02*
D03*
X211000D02*
D03*
X201000D02*
D03*
X115000Y160000D02*
D03*
X184000Y30000D02*
D03*
X165000Y81000D02*
D03*
X135000D02*
D03*
X143000D02*
D03*
X150000D02*
D03*
X158000D02*
D03*
X165000Y190000D02*
D03*
X143000D02*
D03*
X150000D02*
D03*
X158000D02*
D03*
X694000Y139000D02*
D03*
X677000Y146000D02*
D03*
X656000D02*
D03*
X371000Y77000D02*
D03*
X383000D02*
D03*
X184000Y100000D02*
D03*
Y90000D02*
D03*
X290000Y109000D02*
D03*
X181000Y193000D02*
D03*
X191000D02*
D03*
X287000Y82000D02*
D03*
X195000Y28000D02*
D03*
X205000Y18000D02*
D03*
X223000D02*
D03*
X232000Y28000D02*
D03*
X87000Y87000D02*
D03*
X94000Y79000D02*
D03*
X101000Y72000D02*
D03*
X108000Y65000D02*
D03*
X115000Y58000D02*
D03*
X122000Y51000D02*
D03*
X129000Y44000D02*
D03*
X136000Y37000D02*
D03*
X277000Y55000D02*
D03*
X287000Y64000D02*
D03*
X115000Y90000D02*
D03*
X135000Y120000D02*
D03*
X174000Y30000D02*
D03*
X164000D02*
D03*
X154000D02*
D03*
X115000Y100000D02*
D03*
X144000Y30000D02*
D03*
X115000Y170000D02*
D03*
Y190000D02*
D03*
X184000Y110000D02*
D03*
X115000Y180000D02*
D03*
X185000Y160000D02*
D03*
Y180000D02*
D03*
D80*
X382000Y68000D02*
D03*
X372000D02*
D03*
X382000Y86000D02*
D03*
X372000D02*
D03*
X377000Y77000D02*
D03*
M02*
